<?xml version="1.0" standalone="no"?>
<!DOCTYPE svg PUBLIC "-//W3C//DTD SVG 20010904//EN"
 "http://www.w3.org/TR/2001/REC-SVG-20010904/DTD/svg10.dtd">
<svg version="1.0" xmlns="http://www.w3.org/2000/svg"
 width="300.000000pt" height="78.000000pt" viewBox="0 0 300.000000 78.000000"
 preserveAspectRatio="xMidYMid meet">
<metadata>
Created by potrace 1.10, written by Peter Selinger 2001-2011
</metadata>
<g transform="translate(0.000000,78.000000) scale(0.050000,-0.050000)"
fill="#0035b3" stroke="none">
<path d="M800 779 l0 -781 225 9 c271 11 219 11 490 0 l225 -9 0 696 c0 923
39 866 -585 866 l-355 0 0 -781z m422 593 c44 -71 49 -133 14 -168 -20 -20
-20 -33 0 -64 45 -73 -69 -51 -148 28 -72 72 -88 156 -49 260 26 67 127 36
183 -56z m275 57 c62 -136 -14 -295 -154 -322 -64 -12 -66 -11 -40 30 20 33
21 47 1 67 -54 54 -2 194 91 245 73 39 75 39 102 -20z m-376 -332 c99 -80 105
-136 14 -141 -137 -7 -185 6 -245 66 l-60 60 47 39 c70 57 153 49 244 -24z
m542 24 l47 -39 -60 -60 c-60 -60 -108 -73 -245 -66 -89 5 -85 57 10 138 88
76 177 85 248 27z m-543 -421 l0 -140 150 0 150 0 0 141 0 141 111 -6 111 -6
0 -370 0 -370 -111 -6 -111 -6 0 161 0 161 -150 0 -150 0 0 -160 0 -160 -115
0 -115 0 0 380 0 380 115 0 115 0 0 -140z"/>
<path d="M1884 1516 c-43 -43 -26 -96 47 -139 101 -60 72 -111 -38 -66 -29 12
-36 7 -30 -23 5 -26 27 -40 73 -44 134 -13 169 91 54 159 -38 22 -70 49 -70
58 0 31 39 41 78 20 28 -15 44 -15 53 1 31 50 -120 81 -167 34z"/>
<path d="M2124 1385 c6 -155 40 -214 52 -90 5 53 15 65 54 65 39 0 49 -12 54
-65 11 -120 46 -57 52 95 5 124 0 150 -25 150 -21 0 -31 -19 -31 -60 0 -51 -8
-60 -50 -60 -42 0 -50 9 -50 60 0 41 -10 60 -31 60 -25 0 -30 -26 -25 -155z"/>
<path d="M2424 1385 c6 -155 40 -214 52 -90 8 81 34 83 74 5 17 -33 44 -60 61
-60 37 0 37 10 -4 72 -25 38 -27 56 -10 73 67 67 9 155 -102 155 l-77 0 6
-155z m132 70 c8 -42 -50 -69 -80 -39 -30 30 -3 88 39 80 19 -3 38 -22 41 -41z"/>
<path d="M2684 1385 c3 -86 15 -155 26 -155 11 0 23 69 26 155 5 131 1 155
-26 155 -27 0 -31 -24 -26 -155z"/>
<path d="M2924 1385 c6 -155 40 -214 52 -90 8 83 59 86 87 5 12 -33 34 -60 49
-60 34 0 36 28 6 83 -16 30 -16 47 0 63 69 69 7 154 -113 154 l-87 0 6 -155z
m146 65 c0 -26 -15 -42 -45 -46 -37 -6 -45 3 -45 46 0 43 8 52 45 46 30 -4 45
-20 45 -46z"/>
<path d="M3270 1520 c-16 -26 -90 -242 -90 -263 0 -9 14 -17 30 -17 17 0 30
14 30 30 0 20 20 30 60 30 40 0 60 -10 60 -30 0 -16 14 -30 30 -30 40 0 38 19
-15 171 -42 120 -76 156 -105 109z"/>
<path d="M3484 1385 c7 -172 40 -202 56 -51 10 94 10 94 35 41 32 -73 62 -69
91 10 l24 65 10 -110 c14 -158 49 -127 56 50 7 178 -39 211 -104 75 l-36 -75
-39 75 c-66 129 -100 100 -93 -80z"/>
<path d="M3824 1385 c6 -158 37 -203 56 -81 l10 66 57 -75 c32 -41 65 -70 75
-64 29 18 21 42 -31 104 l-48 58 48 58 c87 107 37 130 -54 24 l-55 -65 -1 65
c-1 45 -11 65 -32 65 -25 0 -30 -26 -25 -155z"/>
<path d="M4084 1385 c6 -155 40 -214 52 -90 9 86 48 82 91 -8 24 -50 42 -66
56 -52 14 14 11 39 -11 81 -27 53 -27 63 -1 84 70 59 4 140 -113 140 l-80 0 6
-155z m146 65 c0 -26 -15 -42 -45 -46 -37 -6 -45 3 -45 46 0 43 8 52 45 46 30
-4 45 -20 45 -46z"/>
<path d="M4353 1527 c-30 -31 -14 -290 18 -283 17 3 31 13 30 21 -1 8 -1 74
-1 145 0 120 -12 151 -47 117z"/>
<path d="M4493 1527 c-37 -38 -11 -127 47 -157 101 -52 77 -107 -30 -67 -42
15 -33 -34 10 -56 70 -36 129 -5 136 71 6 56 -1 67 -55 88 -36 14 -61 37 -61
58 0 41 41 47 76 12 29 -29 53 -8 37 33 -12 31 -133 45 -160 18z"/>
<path d="M4724 1385 c6 -155 40 -214 52 -90 6 57 14 65 64 65 50 0 58 -8 64
-65 11 -120 46 -57 52 95 5 124 0 150 -25 150 -21 0 -31 -19 -31 -60 0 -53 -7
-60 -60 -60 -53 0 -60 7 -60 60 0 41 -10 60 -31 60 -25 0 -30 -26 -25 -155z"/>
<path d="M5024 1385 c7 -172 40 -202 56 -51 l10 96 67 -105 c37 -58 75 -100
85 -94 33 21 22 309 -12 309 -22 0 -30 -24 -30 -95 l0 -95 -63 95 c-93 142
-120 128 -113 -60z"/>
<path d="M5361 1399 c-37 -109 -42 -146 -24 -164 19 -19 27 -14 36 20 9 33 27
45 67 45 40 0 58 -12 67 -45 9 -33 18 -38 34 -22 17 17 11 60 -23 165 -60 187
-93 187 -157 1z"/>
<path d="M1873 1127 c-29 -30 -14 -307 17 -307 24 0 30 31 30 160 0 147 -11
182 -47 147z"/>
<path d="M2000 978 c0 -120 6 -159 25 -153 15 5 25 43 25 92 0 104 7 104 77
-7 87 -138 116 -121 109 63 -7 185 -56 240 -56 64 l0 -106 -71 104 c-94 141
-109 134 -109 -57z"/>
<path d="M2324 1116 c-47 -47 -27 -115 46 -159 91 -53 91 -86 0 -71 -79 13
-110 -14 -52 -45 114 -61 232 31 153 118 -20 22 -53 45 -74 52 -72 23 -44 75
33 60 77 -14 95 14 31 48 -51 28 -108 26 -137 -3z"/>
<path d="M2534 1127 c-21 -21 5 -47 47 -47 35 0 39 -15 39 -130 0 -102 6 -130
30 -130 24 0 30 28 30 130 0 117 4 130 40 130 22 0 40 13 40 30 0 31 -197 46
-226 17z"/>
<path d="M2800 980 c0 -129 6 -160 30 -160 24 0 30 31 30 160 0 129 -6 160
-30 160 -24 0 -30 -31 -30 -160z"/>
<path d="M2914 1128 c-26 -27 -14 -48 26 -48 36 0 40 -13 40 -130 0 -102 6
-130 30 -130 24 0 30 28 30 130 0 126 1 130 52 130 32 0 48 9 43 25 -9 27
-197 46 -221 23z"/>
<path d="M3180 1002 c0 -119 6 -144 39 -161 66 -36 138 -25 172 27 41 64 33
262 -11 262 -23 0 -28 -19 -24 -78 10 -122 -9 -172 -65 -172 -46 0 -49 8 -55
123 -9 184 -56 183 -56 -1z"/>
<path d="M3460 1110 c0 -17 18 -30 40 -30 36 0 40 -13 40 -130 0 -102 6 -130
30 -130 24 0 30 28 30 130 0 117 4 130 40 130 22 0 40 13 40 30 0 23 -26 30
-110 30 -84 0 -110 -7 -110 -30z"/>
<path d="M3728 1113 c-5 -15 -7 -85 -4 -155 l6 -128 95 -6 c75 -5 95 0 95 25
0 22 -20 31 -70 31 -57 0 -70 8 -70 40 0 29 13 40 50 40 28 0 50 9 50 20 0 11
-22 20 -50 20 -37 0 -50 11 -50 40 0 32 13 40 70 40 49 0 70 9 70 30 0 40
-176 43 -192 3z"/>
<path d="M4129 1112 c-56 -41 -56 -223 0 -264 112 -81 225 5 205 157 -17 124
-113 174 -205 107z m143 -82 c21 -83 -6 -150 -60 -150 -50 0 -72 33 -72 108 0
94 110 129 132 42z"/>
<path d="M4413 1127 c-29 -30 -14 -307 17 -307 20 0 30 20 30 59 0 44 10 60
43 65 64 9 71 56 9 56 -39 0 -52 10 -52 40 0 31 13 40 60 40 40 0 60 10 60 30
0 31 -139 45 -167 17z"/>
<path d="M280 842 c-366 -78 -340 -371 41 -480 213 -61 257 -101 182 -163 -86
-70 -228 -42 -263 52 -17 44 -31 49 -131 49 l-112 0 14 -64 c67 -304 693 -311
742 -9 26 158 -51 230 -320 300 -149 39 -163 47 -163 93 0 77 172 86 221 11
35 -53 249 -80 249 -30 0 161 -240 288 -460 241z"/>
<path d="M3413 726 c-7 -7 -13 -79 -13 -159 l0 -147 60 -3 c33 -2 71 -4 85 -5
14 -1 25 12 25 28 0 20 -18 29 -55 26 -55 -4 -55 -3 -55 124 0 119 -17 167
-47 136z"/>
<path d="M4791 716 c-5 -14 -12 -62 -15 -106 l-6 -80 -60 95 c-88 139 -113
126 -106 -55 7 -166 40 -210 56 -73 l10 87 65 -93 c84 -119 105 -103 105 79 0
134 -26 212 -49 146z"/>
<path d="M4980 725 c-95 -30 -116 -241 -29 -297 41 -27 60 -29 100 -11 70 32
61 64 -16 58 -64 -5 -65 -4 -71 90 -6 99 -2 103 93 95 30 -2 44 6 39 21 -10
31 -76 56 -116 44z"/>
<path d="M5817 716 c-62 -21 -85 -65 -59 -111 11 -20 10 -45 -3 -66 -29 -46
-7 -94 54 -122 71 -33 151 5 151 71 0 27 11 52 24 57 49 16 -10 55 -84 55 -86
0 -114 23 -71 59 21 17 39 18 69 2 26 -14 44 -14 52 -1 31 50 -50 84 -133 56z
m99 -211 c-8 -40 -71 -58 -100 -29 -30 30 0 64 57 64 37 0 48 -9 43 -35z"/>
<path d="M1864 567 c7 -192 55 -237 57 -54 l2 117 32 -65 c18 -36 42 -65 55
-65 13 0 38 29 56 65 l34 65 -5 -110 c-4 -87 1 -110 25 -110 17 0 29 11 28 25
-1 14 -3 84 -5 155 -4 154 -39 174 -101 55 l-39 -75 -32 75 c-61 143 -114 104
-107 -78z"/>
<path d="M2220 570 l0 -150 90 0 c50 0 90 9 90 20 0 11 -27 20 -60 20 -75 0
-88 73 -15 84 25 3 45 15 45 26 0 11 -20 23 -45 26 -69 10 -56 64 15 64 40 0
60 10 60 30 0 22 -23 30 -90 30 l-90 0 0 -150z"/>
<path d="M2460 570 l0 -150 79 0 c98 0 141 41 141 137 0 110 -46 163 -141 163
l-79 0 0 -150z m156 14 c7 -70 -23 -124 -68 -124 -20 0 -28 29 -28 101 0 127
84 147 96 23z"/>
<path d="M2744 565 c3 -86 15 -155 26 -155 11 0 23 69 26 155 5 131 1 155 -26
155 -27 0 -31 -24 -26 -155z"/>
<path d="M2893 690 c-104 -104 6 -335 128 -269 52 28 50 67 -3 53 -71 -19 -98
5 -98 87 0 84 25 111 97 102 32 -5 45 2 39 20 -13 40 -125 45 -163 7z"/>
<path d="M3142 578 c-34 -105 -40 -148 -23 -165 16 -16 25 -11 34 22 16 63
118 63 134 0 9 -33 18 -38 34 -22 33 33 -57 307 -101 307 -22 0 -46 -44 -78
-142z m98 12 c0 -16 1 -37 2 -44 0 -8 -9 -18 -20 -22 -12 -4 -22 16 -22 44 0
29 9 52 20 52 11 0 20 -13 20 -30z"/>
<path d="M3742 675 c-23 -62 -10 -86 73 -135 54 -32 65 -48 47 -66 -17 -17
-32 -17 -63 2 -40 25 -79 18 -79 -14 0 -27 103 -64 142 -51 82 26 90 169 10
169 -37 0 -79 53 -63 79 9 15 25 15 53 0 51 -27 88 -6 57 33 -40 47 -157 36
-177 -17z"/>
<path d="M4001 682 c-76 -141 22 -324 140 -261 60 32 46 60 -26 54 -62 -5 -65
-1 -71 71 -8 95 20 132 89 118 38 -7 50 -2 43 18 -15 47 -150 47 -175 0z"/>
<path d="M4224 565 c3 -86 15 -155 26 -155 11 0 23 69 26 155 5 131 1 155 -26
155 -27 0 -31 -24 -26 -155z"/>
<path d="M4348 693 c-5 -15 -7 -80 -4 -145 l6 -118 95 -6 c106 -7 134 30 30
40 -83 8 -106 76 -26 76 32 0 51 11 51 30 0 19 -19 30 -50 30 -75 0 -64 56 13
64 35 3 68 17 72 31 12 36 -173 34 -187 -2z"/>
<path d="M5140 570 l0 -150 100 0 c55 0 100 9 100 20 0 11 -31 20 -70 20 -57
0 -70 8 -70 40 0 30 13 40 52 40 62 0 55 47 -9 56 -67 10 -52 61 20 68 111 11
93 56 -21 56 l-102 0 0 -150z"/>
<path d="M5404 696 c-51 -51 -11 -130 81 -162 19 -7 35 -22 35 -34 0 -32 -60
-48 -85 -23 -32 32 -55 29 -55 -7 0 -38 91 -75 143 -59 95 30 68 126 -56 202
-28 17 -31 29 -14 47 17 18 32 17 64 -3 47 -29 74 -14 56 32 -14 37 -134 42
-169 7z"/>
<path d="M1895 298 c-61 -35 -43 -114 36 -161 100 -59 72 -111 -36 -67 -24 10
-35 5 -35 -16 0 -56 137 -76 179 -25 37 44 17 96 -53 141 -78 49 -73 82 11 75
71 -6 83 23 24 54 -48 26 -81 26 -126 -1z"/>
<path d="M2172 257 c-79 -189 -89 -329 -17 -222 38 57 92 57 130 0 55 -81 60
-20 11 127 -56 167 -85 189 -124 95z m74 -97 c7 -29 0 -40 -25 -40 -27 0 -33
12 -26 50 11 56 35 51 51 -10z"/>
<path d="M2394 305 c-14 -27 10 -305 27 -305 9 0 20 43 23 95 l6 95 66 -90
c95 -128 114 -118 114 58 0 180 -44 228 -54 58 l-6 -106 -67 105 c-64 101 -91
123 -109 90z"/>
<path d="M2733 173 c-62 -174 -62 -173 -25 -173 15 0 32 18 38 40 14 55 105
55 120 0 13 -49 54 -53 53 -5 -2 57 -87 271 -111 279 -12 4 -46 -60 -75 -141z"/>
<path d="M2980 162 c0 -131 6 -162 30 -162 20 0 30 21 31 65 l0 65 59 -65 c98
-107 141 -77 48 33 l-52 62 52 62 c48 57 54 98 12 98 -9 0 -38 -34 -63 -75
l-47 -75 -10 68 c-21 143 -60 93 -60 -76z"/>
<path d="M3273 180 c-29 -78 -53 -151 -53 -161 0 -36 55 -19 66 21 14 54 82
51 120 -5 62 -92 72 -11 17 133 -70 181 -87 182 -150 12z"/>
<path d="M3640 160 c0 -129 6 -160 30 -160 20 0 30 20 30 60 0 53 7 60 60 60
54 0 60 -6 60 -62 0 -40 9 -58 25 -53 17 6 25 55 25 155 0 100 -8 149 -25 155
-17 6 -25 -15 -25 -63 0 -67 -4 -72 -60 -72 -55 0 -60 6 -60 70 0 49 -9 70
-30 70 -24 0 -30 -31 -30 -160z"/>
<path d="M3973 283 c-43 -48 -44 -209 -2 -252 47 -46 141 -39 178 13 103 148
-59 368 -176 239z m137 -123 c0 -83 -4 -90 -55 -96 -55 -7 -87 138 -41 184 46
46 96 0 96 -88z"/>
<path d="M4275 298 c-61 -35 -43 -114 35 -161 39 -22 70 -49 70 -58 0 -32 -39
-41 -82 -18 -29 16 -49 16 -63 2 -30 -30 69 -71 131 -56 94 24 89 114 -8 164
-80 42 -79 97 2 79 45 -10 60 -6 60 16 0 51 -82 69 -145 32z"/>
<path d="M4488 293 c-20 -52 1 -280 27 -288 16 -5 25 11 25 42 0 39 13 53 59
63 77 17 108 58 93 120 -19 76 -180 125 -204 63z m142 -83 c0 -26 -15 -42 -45
-46 -37 -6 -45 3 -45 46 0 43 8 52 45 46 30 -4 45 -20 45 -46z"/>
<path d="M4759 317 c-19 -84 -3 -307 22 -307 39 0 43 292 4 305 -14 5 -26 5
-26 2z"/>
<path d="M4874 308 c-26 -27 -14 -48 26 -48 36 0 40 -13 40 -130 0 -102 6
-130 30 -130 24 0 30 28 30 130 0 118 4 130 42 130 24 0 38 10 33 25 -9 27
-177 46 -201 23z"/>
<path d="M5185 295 c-29 -37 -103 -270 -90 -283 22 -22 42 -12 55 28 17 54
103 54 120 0 13 -40 33 -50 55 -29 15 16 -84 309 -104 309 -9 0 -25 -11 -36
-25z"/>
<path d="M5388 293 c-5 -15 -7 -85 -4 -155 l6 -128 85 0 c100 0 124 37 30 46
l-65 7 0 128 c0 120 -26 170 -52 102z"/>
<path d="M5630 288 c-43 -44 -31 -112 27 -140 73 -37 95 -64 69 -90 -16 -16
-34 -15 -66 2 -53 28 -75 12 -40 -30 30 -36 122 -40 156 -6 48 48 28 115 -46
150 -84 40 -80 78 7 71 71 -6 83 23 24 54 -54 30 -93 26 -131 -11z"/>
</g>
</svg>
