<?xml version="1.0" encoding="UTF-8"?>
<svg version="1.1" xmlns="http://www.w3.org/2000/svg" width="2499" height="2497">
<path d="M0 0 C824.67 0 1649.34 0 2499 0 C2499 824.01 2499 1648.02 2499 2497 C1674.33 2497 849.66 2497 0 2497 C0 1672.99 0 848.98 0 0 Z " fill="#FEFEFE" transform="translate(0,0)"/>
<path d="M0 0 C117.48 0 234.96 0 356 0 C356.02578125 48.24960938 356.0515625 96.49921875 356.078125 146.2109375 C356.10177723 174.87959316 356.12569981 203.54824344 356.1546514 232.21689343 C356.17160744 249.02752406 356.18837736 265.83815486 356.20457371 282.64878623 C356.2065333 284.68218762 356.20849875 286.715589 356.21047013 288.74899037 C356.24185477 321.17116927 356.26034072 353.59333975 356.27209247 386.01553123 C356.2842378 419.33505259 356.30943443 452.65453918 356.35107614 485.97403736 C356.35695031 490.67911908 356.36267514 495.38420097 356.36830902 500.08928299 C356.36942248 501.01531958 356.37053594 501.94135617 356.37168314 502.89545448 C356.38922965 517.8080089 356.39299927 532.72053658 356.39162921 547.63309994 C356.39054572 562.62168027 356.40394713 577.61019204 356.43216428 592.59874634 C356.44849197 601.50604992 356.45368334 610.41319844 356.44297175 619.32051141 C356.43691061 625.2706563 356.44532522 631.22066714 356.4654923 637.17078064 C356.47656969 640.56117734 356.4791662 643.95099823 356.46851245 647.34143548 C356.45800922 650.99656459 356.47202883 654.65081335 356.49219131 658.30588341 C356.48328761 659.35452472 356.4743839 660.40316603 356.46521038 661.48358434 C356.593089 673.54268769 361.69664532 682.92201619 369.62109375 691.8203125 C380.1558222 701.87504134 394.36123173 700.56831903 407.86315918 700.50793457 C410.10458388 700.51254633 412.34600556 700.51890109 414.58742094 700.52684355 C420.73246856 700.54352197 426.87726729 700.53529705 433.02231574 700.52289867 C438.97334238 700.51477504 444.9243278 700.52544172 450.87534495 700.53548814 C463.79446777 700.55652698 476.71351137 700.55473518 489.63264169 700.54317249 C500.93848815 700.53310358 512.24430561 700.53048657 523.55015564 700.53526306 C524.30058943 700.5355686 525.05102323 700.53587414 525.82419744 700.53618894 C528.87058173 700.53743433 531.91696601 700.53870793 534.96335028 700.540028 C563.53096037 700.55225938 592.09852006 700.54117749 620.66612237 700.51964041 C646.0373703 700.50065849 671.40853792 700.50235702 696.77978516 700.52148438 C725.2957045 700.54291072 753.81157931 700.55139187 782.32750559 700.53903532 C785.36828517 700.53775248 788.40906476 700.53650112 791.44984436 700.53526306 C792.57289069 700.5347886 792.57289069 700.5347886 793.71862483 700.53430455 C805.0163625 700.52975788 816.31406794 700.53506974 827.61180115 700.54518127 C840.46001061 700.55662327 853.30812857 700.55374843 866.15632665 700.5320583 C872.71157074 700.52135638 879.2666855 700.51742891 885.82193184 700.53065491 C891.82372096 700.5425811 897.82519614 700.53601194 903.82695681 700.5147447 C905.99706193 700.51027968 908.16719363 700.5125426 910.33728164 700.52224785 C924.4425414 700.58048735 936.34151786 700.52654698 947.06640625 690.203125 C950.08143859 686.76781543 952.11477028 683.14246128 954 679 C954.3295166 678.39599365 954.6590332 677.7919873 954.99853516 677.16967773 C958.40022186 670.50404601 958.65614937 664.33036999 958.75 656.9375 C958.77964844 655.78572266 958.80929687 654.63394531 958.83984375 653.44726562 C958.90994723 650.63144257 958.96293765 647.81641885 959 645 C966.98347459 641.55323637 975.04582251 638.50574091 983.2635498 635.66687012 C1019.99257679 622.93603613 1055.90880818 607.86577486 1091.02612305 591.21508789 C1092.19570557 590.66071045 1093.36528809 590.10633301 1094.5703125 589.53515625 C1095.59914551 589.044104 1096.62797852 588.55305176 1097.68798828 588.04711914 C1100 587 1100 587 1101 587 C1101.06992492 598.70166928 1101.12302501 610.40328775 1101.15543652 622.10512447 C1101.17100293 627.54045501 1101.19207362 632.97564118 1101.22631836 638.41088867 C1101.25923708 643.66938735 1101.2769206 648.92774836 1101.28463173 654.18634224 C1101.29011751 656.17910487 1101.30082723 658.17186113 1101.31719017 660.16456413 C1101.47892223 680.70255178 1098.61725778 700.96059188 1091.02734375 720.1796875 C1090.00414537 722.86165516 1090.00414537 722.86165516 1089.42895508 725.12646484 C1087.4941765 732.27738367 1084.40424583 738.41724835 1080.8125 744.875 C1080.22807129 745.93638184 1079.64364258 746.99776367 1079.04150391 748.09130859 C1067.02715331 769.70915892 1051.77320637 789.91874091 1032 805 C1031.06671875 805.73734375 1030.1334375 806.4746875 1029.171875 807.234375 C994.57713828 834.05917085 954.84527434 843.3487751 911.76597595 843.25396729 C909.46091713 843.25627605 907.15585905 843.25945534 904.85080248 843.26342177 C898.56219275 843.27172126 892.27364422 843.26766667 885.98503435 843.26144934 C879.88517835 843.25737353 873.78533664 843.26272923 867.68548258 843.26774407 C854.45081855 843.27824078 841.21617391 843.27737672 827.98150808 843.27158624 C816.39987154 843.26654421 804.8182421 843.26524681 793.23660469 843.26763153 C792.46672762 843.2677843 791.69685055 843.26793707 790.90364387 843.26809447 C787.77804203 843.2687172 784.65244019 843.26935401 781.52683835 843.270014 C752.24026435 843.27612424 722.95370266 843.27059729 693.66713056 843.2598202 C667.67708761 843.25032891 641.68706426 843.25117995 615.69702148 843.26074219 C586.46062039 843.27146301 557.22423015 843.27569175 527.98782736 843.26951766 C524.86841142 843.26887628 521.74899548 843.26825059 518.62957954 843.26763153 C517.86156477 843.26747338 517.09355 843.26731522 516.30226206 843.26715227 C504.73035878 843.2648822 493.15846339 843.26752877 481.5865612 843.27259064 C468.42287989 843.27832028 455.25922091 843.27685578 442.09554236 843.26602915 C435.38358894 843.26069016 428.67168017 843.25869485 421.95972443 843.26532745 C415.80810277 843.27131427 409.6565574 843.26796687 403.5049426 843.25737235 C401.28715862 843.25514989 399.0693681 843.25624846 396.85158836 843.26112393 C381.23780609 843.29279869 365.63637908 843.06295095 350.5 838.75 C349.71359131 838.53239014 348.92718262 838.31478027 348.11694336 838.09057617 C345.73684198 837.41740413 343.36734178 836.71666302 341 836 C340.28344238 835.78359863 339.56688477 835.56719727 338.82861328 835.34423828 C306.60266426 825.35441824 276.55951496 804.81822164 256 778 C254.92418671 776.63852452 253.84728464 775.27790895 252.76953125 773.91796875 C237 753.85781926 237 753.85781926 237 748 C236.34 748 235.68 748 235 748 C234.68546875 747.2265625 234.3709375 746.453125 234.046875 745.65625 C231.16113499 738.61207296 231.16113499 738.61207296 227.875 731.75 C224.37833508 724.884079 222.5180669 718.71741037 222 711 C221.34 711 220.68 711 220 711 C219.36887378 708.12623109 218.74508839 705.25115466 218.125 702.375 C217.95097656 701.58609375 217.77695312 700.7971875 217.59765625 699.984375 C214.42230349 685.1660621 213.71520315 671.0665783 213.75949097 655.96780396 C213.75861772 653.74482769 213.75686456 651.52185162 213.75431263 649.29887664 C213.74985846 643.21923736 213.75781619 637.13966906 213.76786876 631.06003881 C213.7756383 625.16839016 213.77394564 619.27674911 213.77250507 613.38509663 C213.7698843 601.34164312 213.77653331 589.29821165 213.78853989 577.25476456 C213.80039037 565.33722957 213.80807509 553.41970377 213.81024551 541.50216293 C213.81038299 540.76004341 213.81052047 540.0179239 213.81066212 539.25331591 C213.81133882 535.48417726 213.81194158 531.71503861 213.81251587 527.94589995 C213.81671216 501.27724086 213.83017422 474.60859375 213.84912109 447.93994141 C213.86750178 422.03824934 213.88166321 396.13656056 213.89013672 370.23486328 C213.89039977 369.43589068 213.89066282 368.63691808 213.89093385 367.81373418 C213.89357098 359.78982652 213.89612259 351.76591884 213.89861157 343.74201114 C213.90368344 327.39765854 213.90932594 311.05330615 213.91531372 294.70895386 C213.91572559 293.58182385 213.91572559 293.58182385 213.91614578 292.43192354 C213.93453452 242.28794395 213.96626515 192.14397136 214 142 C213.33131362 142.01013972 212.66262724 142.02027945 211.97367764 142.03072643 C195.69000661 142.27383792 179.40691152 142.45576713 163.12184811 142.56993389 C155.24633991 142.62661488 147.37204422 142.70386001 139.49731445 142.82983398 C132.63218022 142.93960469 125.76792404 143.01046929 118.90193659 143.03497344 C115.26711045 143.04929554 111.6347957 143.08284672 108.00077629 143.16303062 C103.93941668 143.25191367 99.88239759 143.2538822 95.82006836 143.2487793 C94.02039864 143.30810135 94.02039864 143.30810135 92.18437195 143.36862183 C88.78418922 143.32238001 86.19588794 143.17147562 83 142 C79.87552853 138.67698403 77.97481595 135.0811901 76 131 C75.22227497 129.76597112 74.42276601 128.54508812 73.59155273 127.34643555 C72.05465577 125.06047736 70.5192019 122.77359553 68.98535156 120.4855957 C68.56966919 119.86625153 68.15398682 119.24690735 67.72570801 118.60879517 C50.47136307 92.87483813 33.98132168 66.73232844 19.0625 39.5625 C18.56024902 38.65113281 18.05799805 37.73976563 17.54052734 36.80078125 C17.08500488 35.9603125 16.62948242 35.11984375 16.16015625 34.25390625 C15.76449463 33.52502197 15.36883301 32.7961377 14.96118164 32.04516602 C14.01773068 30.03772666 13.45577332 28.16545678 13 26 C12.34 26 11.68 26 11 26 C2.26213592 9.04854369 2.26213592 9.04854369 0 0 Z " fill="#0E606E" transform="translate(568,1525)"/>
<path d="M0 0 C0 117.48 0 234.96 0 356 C-47.97246094 356.04898437 -95.94492187 356.09796875 -145.37109375 356.1484375 C-173.87266857 356.18169346 -202.37424195 356.21508408 -230.87581336 356.25098133 C-247.58807588 356.27201992 -264.30033851 356.29296575 -281.0126015 356.31362569 C-283.03411552 356.31612497 -285.05562953 356.31862716 -287.07714354 356.3211323 C-319.31232563 356.36105529 -351.54751045 356.3945487 -383.78270305 356.42468691 C-416.90881484 356.45569213 -450.03491303 356.49319984 -483.16100795 356.53890612 C-487.8383013 356.54535666 -492.51559475 356.55173275 -497.19288826 356.55806351 C-498.11345967 356.55931181 -499.03403109 356.56056012 -499.9824986 356.56184625 C-514.80969732 356.58176054 -529.63689454 356.59480663 -544.4641026 356.60529328 C-559.36527127 356.61597848 -574.26641738 356.63387805 -589.16756856 356.65916704 C-598.02394014 356.67397739 -606.88027718 356.68323094 -615.73666127 356.68456683 C-621.65157114 356.68600387 -627.56644207 356.69464586 -633.48133425 356.70915592 C-636.85230964 356.71721886 -640.22314424 356.7210437 -643.59413796 356.71827881 C-647.22664425 356.71578792 -650.85892077 356.7254961 -654.49140072 356.73828697 C-655.53625166 356.73463729 -656.5811026 356.73098761 -657.65761569 356.72722733 C-670.6470601 356.8062128 -682.15811802 360.15921053 -691.9375 369.125 C-702.22635435 380.72314392 -701.7149829 393.34181261 -701.62818909 407.99014282 C-701.63323817 410.23314492 -701.64046979 412.47614298 -701.64968723 414.71913183 C-701.66858429 420.86390441 -701.65638972 427.00827801 -701.6389643 433.15304041 C-701.62695591 439.10512098 -701.638471 445.05714429 -701.6492356 451.00921698 C-701.67165905 463.92899992 -701.66571628 476.84865179 -701.6477995 489.76843481 C-701.63221927 501.07362557 -701.62638256 512.37877041 -701.6301403 523.68397141 C-701.63037711 524.43448158 -701.63061391 525.18499176 -701.63085788 525.95824467 C-701.63183284 529.00494889 -701.63285365 532.0516531 -701.63394299 535.09835728 C-701.64402057 563.6642822 -701.62577603 592.23012651 -701.59422263 620.79603247 C-701.56635733 646.16743558 -701.56140156 671.53874285 -701.57641602 696.91015625 C-701.58023855 703.40850634 -701.58403337 709.90685644 -701.5875864 716.40520668 C-701.58802422 717.20526644 -701.58846203 718.0053262 -701.58891311 718.82963019 C-701.60015522 740.04051138 -701.59280244 761.25138553 -701.57970566 782.46226442 C-701.57831711 784.74479287 -701.5769364 787.02732133 -701.57556724 789.3098498 C-701.57465786 790.82396686 -701.57373519 792.33808392 -701.57279913 793.85220096 C-701.56600676 805.15084236 -701.56866047 816.44945606 -701.57574654 827.74809647 C-701.58371584 840.59521725 -701.57713653 853.44224159 -701.5515715 866.28934123 C-701.53888241 872.8444651 -701.53294059 879.39946208 -701.54411316 885.95459557 C-701.55414732 891.95506443 -701.5457129 897.95521311 -701.52253198 903.95564298 C-701.51736905 906.12637113 -701.51894102 908.29712792 -701.52792663 910.46784361 C-701.53913002 913.41988106 -701.52567326 916.37083756 -701.50615788 919.32280922 C-701.5197761 920.58499812 -701.5197761 920.58499812 -701.53366944 921.87268579 C-701.40964286 931.50643022 -697.52870253 939.97025751 -691 947 C-680.62507207 956.83989801 -667.83893674 958.99573161 -654.125 959.5625 C-653.15046875 959.60568359 -652.1759375 959.64886719 -651.171875 959.69335938 C-648.78137198 959.79882274 -646.39077556 959.90094175 -644 960 C-643.68546875 961.02738281 -643.3709375 962.05476563 -643.046875 963.11328125 C-640.56792532 971.15988371 -637.95587959 979.11361633 -635 987 C-634.39416028 988.66605923 -633.79005851 990.33275125 -633.1875 992 C-625.90941061 1012.4462972 -625.90941061 1012.4462972 -617.5 1032.4375 C-615.42577271 1036.94009094 -613.69014972 1041.4899925 -612.03515625 1046.16015625 C-609.51479129 1053.07451598 -606.80270711 1059.69659963 -603 1066 C-602.48084694 1067.23392901 -601.99798459 1068.48411933 -601.5625 1069.75 C-598.44420312 1078.31344472 -594.35228834 1086.24392403 -589.99755859 1094.23608398 C-589.41868896 1095.30838257 -589.41868896 1095.30838257 -588.828125 1096.40234375 C-588.4765332 1097.04679443 -588.12494141 1097.69124512 -587.76269531 1098.35522461 C-587 1100 -587 1100 -587 1102 C-597.52042818 1102.07030731 -608.04079815 1102.12321267 -618.56141567 1102.15543652 C-623.44947699 1102.1709223 -628.33737464 1102.19183699 -633.2253418 1102.22631836 C-685.93807565 1102.58795328 -736.47141321 1095.49614682 -778 1060 C-779.1215927 1059.07324591 -780.24405008 1058.14753768 -781.3671875 1057.22265625 C-791.68337365 1048.65473917 -800.38282458 1039.30715432 -808.5 1028.625 C-809.0170752 1027.94663086 -809.53415039 1027.26826172 -810.06689453 1026.56933594 C-812.59934006 1023.16628309 -814.67573198 1020.08315974 -816 1016 C-816.66 1016 -817.32 1016 -818 1016 C-825.421875 1001.15625 -825.421875 1001.15625 -826.73901367 998.51977539 C-827.54410084 996.91100391 -828.35133842 995.30330558 -829.16137695 993.69702148 C-829.51159912 993.00165283 -829.86182129 992.30628418 -830.22265625 991.58984375 C-830.52695557 990.987771 -830.83125488 990.38569824 -831.14477539 989.76538086 C-834.14663404 983.56885219 -835.53864906 977.8725382 -836 971 C-836.66 971 -837.32 971 -838 971 C-839.62465727 964.03718314 -840.86654077 957.05792682 -842 950 C-842.25790148 948.72003275 -842.25790148 948.72003275 -842.52101308 947.41420758 C-843.12922321 943.07889995 -843.13876997 938.85019382 -843.12863445 934.47814751 C-843.13038749 933.52159687 -843.13214053 932.56504622 -843.13394669 931.5795092 C-843.13861327 928.36149395 -843.13613945 925.14352375 -843.13371277 921.92550659 C-843.13558043 919.59994473 -843.13788096 917.27438319 -843.14057809 914.94882214 C-843.1460653 909.21929339 -843.14687719 903.48977717 -843.14571724 897.76024622 C-843.1445811 890.89689197 -843.14922146 884.03354468 -843.1539966 877.17019243 C-843.16367286 862.93626194 -843.166481 848.70233505 -843.16705366 834.46840166 C-843.16751323 823.47043085 -843.16957173 812.47246146 -843.17275429 801.47449112 C-843.17365185 798.30840178 -843.17454167 795.14231245 -843.17542917 791.97622311 C-843.17565021 791.18909389 -843.17587126 790.40196468 -843.17609901 789.59098306 C-843.18225476 767.44457109 -843.18619944 745.29815961 -843.18575573 723.15174675 C-843.18574015 722.31654831 -843.18572457 721.48134987 -843.18570852 720.62084238 C-843.18562541 716.3877797 -843.18552637 712.15471701 -843.18542381 707.92165433 C-843.18540387 707.08096846 -843.18538392 706.2402826 -843.18536337 705.3741214 C-843.18532294 703.67404544 -843.18528114 701.97396947 -843.18523798 700.2738935 C-843.18462583 673.84941958 -843.19212013 647.42495852 -843.20581055 621.00048828 C-843.22118999 591.30379095 -843.22977556 561.60710207 -843.22884732 531.91040051 C-843.2287727 528.73991021 -843.22872399 525.5694199 -843.22869301 522.3989296 C-843.22868135 521.61829389 -843.2286697 520.83765818 -843.22865769 520.03336684 C-843.22862698 507.49791203 -843.23499959 494.96246841 -843.24362527 482.42701692 C-843.25212593 469.81162179 -843.25307297 457.19624295 -843.24651595 444.58084653 C-843.24315803 437.75316337 -843.24317131 430.92552293 -843.2518692 424.09784317 C-843.25976334 417.83641385 -843.25827309 411.57505666 -843.24958507 405.31362905 C-843.24805643 403.05909299 -843.24984202 400.80455148 -843.25544515 398.55002187 C-843.2961981 380.97560937 -843.31122803 362.92511331 -838 346 C-837.79358887 345.34185303 -837.58717773 344.68370605 -837.37451172 344.00561523 C-835.54907611 338.34355582 -833.3557504 332.89735008 -831 327.4375 C-830.31093444 325.83270257 -829.62341713 324.2272394 -828.9375 322.62109375 C-828.60427734 321.84209717 -828.27105469 321.06310059 -827.92773438 320.26049805 C-827.07649582 318.18638811 -826.32727937 316.10220459 -825.59375 313.984375 C-823.83279944 309.22637652 -821.22641509 305.07211547 -818.5 300.8125 C-817.97027588 299.98097412 -817.44055176 299.14944824 -816.89477539 298.29272461 C-812.5285566 291.56831892 -807.75429186 285.42359761 -802.36328125 279.49853516 C-800.96686575 277.96357843 -799.59210274 276.41106963 -798.21875 274.85546875 C-772.44629199 245.90329189 -737.61243009 226.39745102 -699.9375 217.75 C-699.29119629 217.59893799 -698.64489258 217.44787598 -697.97900391 217.29223633 C-682.67780569 214.00386973 -667.33761688 213.71323962 -651.75889587 213.75949097 C-649.54982964 213.7586172 -647.34076361 213.75686308 -645.13169867 213.75431263 C-639.10444339 213.74986873 -633.07726003 213.75780184 -627.0500139 213.76786876 C-621.20473168 213.77565116 -615.35945704 213.7739445 -609.51417094 213.77250507 C-597.56889042 213.76988701 -585.62363214 213.77652291 -573.67835808 213.78853989 C-561.86099067 213.80039756 -550.04363254 213.80807654 -538.22625923 213.81024551 C-537.12170736 213.81045173 -537.12170736 213.81045173 -535.99484131 213.81066212 C-532.25478972 213.81133884 -528.51473813 213.81194159 -524.77468652 213.81251587 C-498.32398719 213.81671019 -471.87329995 213.83016672 -445.42260742 213.84912109 C-419.73543359 213.86750701 -394.04826308 213.88166587 -368.36108398 213.89013672 C-367.56848218 213.89039977 -366.77588038 213.89066282 -365.95926035 213.89093385 C-357.99920515 213.89357102 -350.03914992 213.89612263 -342.07909468 213.89861157 C-325.86535676 213.9036832 -309.65161907 213.9093257 -293.43788147 213.91531372 C-292.69249529 213.9155883 -291.94710911 213.91586288 -291.17913548 213.91614578 C-241.45275185 213.93452903 -191.72637532 213.96625906 -142 214 C-142.01244421 213.00470103 -142.01244421 213.00470103 -142.02513981 211.98929501 C-142.22405406 195.83071344 -142.37290428 179.67252051 -142.46630955 163.51299953 C-142.51268278 155.69824139 -142.57588246 147.88430132 -142.67895508 140.07006836 C-142.76877009 133.25767449 -142.82674904 126.44587312 -142.84679645 119.63290364 C-142.85851295 116.02638289 -142.88596391 112.42155682 -142.95157051 108.81558037 C-143.02429185 104.78571905 -143.02590276 100.75878702 -143.02172852 96.72827148 C-143.07026474 94.94262787 -143.07026474 94.94262787 -143.11978149 93.12091064 C-143.03098025 85.20068511 -143.03098025 85.20068511 -140.08253384 81.76690865 C-137.79828781 79.96278493 -135.51121491 78.46676691 -133 77 C-131.52652347 75.99601034 -130.05754631 74.98534803 -128.59545898 73.96484375 C-127.06491225 72.95182784 -125.53168733 71.94284914 -123.99609375 70.9375 C-123.1635054 70.38844498 -122.33091705 69.83938995 -121.47309875 69.2736969 C-118.79740846 67.51142853 -116.11782166 65.75521489 -113.4375 64 C-112.06265442 63.09760086 -112.06265442 63.09760086 -110.66003418 62.17697144 C-78.1808613 40.8622925 -45.14095148 20.33074006 -10 3.625 C-8.81639893 3.06196167 -8.81639893 3.06196167 -7.60888672 2.48754883 C-2.26615325 0 -2.26615325 0 0 0 Z " fill="#0E606E" transform="translate(924,565)"/>
<path d="M0 0 C1.54726994 0.02516053 3.09455236 0.04956418 4.6418457 0.07324219 C18.42644094 0.36959256 31.9130598 1.97354956 45.4375 4.6875 C46.63608643 4.92774902 46.63608643 4.92774902 47.85888672 5.17285156 C52.45464493 6.1338292 56.94098989 7.32652421 61.4375 8.6875 C62.07671387 8.88005371 62.71592773 9.07260742 63.37451172 9.27099609 C82.31455962 15.11188639 100.48548882 23.92725818 116.4375 35.6875 C116.98035645 36.07244629 117.52321289 36.45739258 118.08251953 36.85400391 C135.30162782 49.0903872 150.94755751 64.96319982 162.4375 82.6875 C163.09234375 83.68910156 163.7471875 84.69070313 164.421875 85.72265625 C168.4375 92.12370986 168.4375 92.12370986 168.4375 95.6875 C169.0975 95.6875 169.7575 95.6875 170.4375 95.6875 C174.37030949 103.06658584 177.57562021 110.4432869 180.26953125 118.359375 C181.31235322 121.33089447 182.48953175 124.17890247 183.75 127.0625 C185.57209499 131.48236094 185.78925672 134.93878423 185.4375 139.6875 C186.0975 139.6875 186.7575 139.6875 187.4375 139.6875 C188.34163673 143.52474172 188.54326898 147.06252274 188.5 151 C188.49097656 152.06863281 188.48195313 153.13726563 188.47265625 154.23828125 C188.45525391 155.45064453 188.45525391 155.45064453 188.4375 156.6875 C189.0975 156.6875 189.7575 156.6875 190.4375 156.6875 C190.48888244 211.12859442 190.53664071 265.56969113 190.56452942 320.01080322 C190.56494359 320.81723143 190.56535776 321.62365964 190.56578448 322.45452506 C190.57476432 339.98262193 190.5830747 357.51071905 190.59069599 375.03881656 C190.59443782 383.63525276 190.59832751 392.2316889 190.60229492 400.828125 C190.6026872 401.68354952 190.60307948 402.53897405 190.60348364 403.42032053 C190.61625555 431.1205734 190.63878041 458.82080785 190.66639166 486.52104957 C190.69472667 514.99927243 190.71316496 543.4774851 190.71924497 571.95572182 C190.72010937 575.98297565 190.72108628 580.01022943 190.72213173 584.03748322 C190.722334 584.83006313 190.72253627 585.62264305 190.72274467 586.43924054 C190.72628249 599.17030005 190.74017683 611.90132795 190.7579961 624.6323746 C190.77571071 637.44790039 190.78239075 650.26339502 190.77800413 663.07893261 C190.77593074 670.01595684 190.778585 676.95289685 190.79511642 683.88990402 C190.80979867 690.25151979 190.81039859 696.61298178 190.80019668 702.97460487 C190.79893723 705.26566198 190.80267175 707.556729 190.81214955 709.84776685 C190.87873704 726.95009236 190.1635031 743.44348823 184.4375 759.6875 C184.07269531 760.87472656 183.70789062 762.06195312 183.33203125 763.28515625 C180.30637604 772.9738067 176.22372945 781.7514849 171.4375 790.6875 C170.90334473 791.70360352 170.90334473 791.70360352 170.35839844 792.74023438 C165.21965379 802.48118507 159.45496563 811.20806236 152.4375 819.6875 C151.97472656 820.25710449 151.51195313 820.82670898 151.03515625 821.41357422 C130.63377788 846.46607984 104.29925913 864.65957568 74.25 876.4375 C73.56268799 876.70699463 72.87537598 876.97648926 72.16723633 877.25415039 C39.48228077 889.6798676 6.28353515 889.41379415 -28.16892743 889.26782811 C-33.99161235 889.24821418 -39.81425214 889.25265255 -45.63696183 889.25623732 C-57.51966742 889.26274971 -69.40223218 889.24632009 -81.28489685 889.21615028 C-93.02567753 889.18641811 -104.76639935 889.16729115 -116.50721741 889.16188622 C-117.24116788 889.16154252 -117.97511835 889.16119882 -118.73130975 889.16084471 C-122.45968687 889.1591527 -126.18806404 889.15764591 -129.91644126 889.15621033 C-156.22574668 889.14574843 -182.53497577 889.11217478 -208.84423828 889.06469727 C-234.38036701 889.01866861 -259.91647473 888.98330297 -285.45263672 888.9621582 C-286.24177157 888.96150057 -287.03090642 888.96084294 -287.84395445 888.96016538 C-295.76981183 888.95357197 -303.69566936 888.94719302 -311.62152703 888.94097109 C-327.76294459 888.92829493 -343.90436079 888.91418867 -360.04577637 888.8992157 C-360.78769771 888.89852925 -361.52961905 888.8978428 -362.29402285 888.89713555 C-411.71688096 888.85124418 -461.13969431 888.77192666 -510.5625 888.6875 C-510.54867311 889.34734548 -510.53484621 890.00719095 -510.52060032 890.68703175 C-510.18860681 906.77997787 -509.94077574 922.8717254 -509.78531742 938.96725178 C-509.7081287 946.75131389 -509.60300918 954.53308381 -509.4309082 962.31567383 C-509.28088358 969.10321271 -509.18451173 975.88909156 -509.15117258 982.67824239 C-509.13169372 986.27058698 -509.08632134 989.85818536 -508.97654915 993.4489994 C-508.3372158 1015.19980405 -508.3372158 1015.19980405 -511.99300575 1020.92953682 C-515.3636494 1024.4871653 -519.1815449 1026.73666958 -523.61289501 1028.74965858 C-526.8444602 1030.30417639 -529.65990471 1032.37552716 -532.59765625 1034.42578125 C-533.75366484 1035.18764189 -534.91212753 1035.94580361 -536.07397461 1036.69873047 C-536.653237 1037.07431091 -537.23249939 1037.44989136 -537.82931519 1037.83685303 C-538.42189117 1038.22069153 -539.01446716 1038.60453003 -539.625 1039 C-540.89148022 1039.82419284 -542.15783539 1040.64857788 -543.42407227 1041.47314453 C-546.55514864 1043.50970681 -549.69035083 1045.53979723 -552.82775879 1047.56658936 C-554.44421368 1048.61106878 -556.0595536 1049.65727319 -557.67480469 1050.70361328 C-578.14072662 1063.94157397 -599.08164426 1076.17461595 -620.5625 1087.6875 C-622.13024901 1088.53377881 -623.69795921 1089.38012953 -625.265625 1090.2265625 C-648.45291709 1102.6875 -648.45291709 1102.6875 -652.5625 1102.6875 C-652.5625 985.2075 -652.5625 867.7275 -652.5625 746.6875 C-580.88998047 746.63142578 -580.88998047 746.63142578 -507.76953125 746.57421875 C-479.3710079 746.54576296 -450.97248766 746.5171045 -422.57396901 746.48468363 C-405.92043221 746.46568664 -389.26689527 746.44682889 -372.61335783 746.4284003 C-370.59899514 746.42617086 -368.58463245 746.42393704 -366.57026977 746.42169879 C-334.46003321 746.38605589 -302.34979776 746.3600607 -270.23954853 746.33911031 C-237.23655881 746.31752627 -204.23359247 746.28616466 -171.23062421 746.24250887 C-166.5686685 746.23634667 -161.90671265 746.23029619 -157.2447567 746.22431374 C-156.32722128 746.22313285 -155.40968586 746.22195197 -154.46434633 746.22073531 C-139.69744402 746.20201735 -124.93055295 746.19359964 -110.16364023 746.18903876 C-95.3161637 746.184233 -80.46873005 746.16856394 -65.62127654 746.14183434 C-56.80127806 746.12628523 -47.98136417 746.11903722 -39.16135275 746.12373071 C-33.26557756 746.12604649 -27.36988216 746.11748197 -21.4741321 746.10017589 C-18.11731857 746.09063083 -14.76082738 746.08737592 -11.40398512 746.09410437 C-7.77982808 746.10062843 -4.15617133 746.08868915 -0.53205585 746.07226086 C1.01464544 746.0816759 1.01464544 746.0816759 2.59259322 746.09128115 C15.08601786 745.9871659 28.30532083 743.47824506 37.640625 734.58984375 C39.88268751 732.07891603 41.9285608 729.7053784 43.4375 726.6875 C44.0975 726.6875 44.7575 726.6875 45.4375 726.6875 C48.04518334 715.41696324 47.72600791 704.11978927 47.71165466 692.62142944 C47.71611106 690.3701817 47.72142642 688.11893553 47.72752339 685.86769164 C47.74166445 679.70024009 47.74336742 673.53283904 47.74292648 667.36537361 C47.74440825 661.39128097 47.75522466 655.41720685 47.76561778 649.44312466 C47.79030181 634.9679202 47.79913382 620.49272727 47.80415427 606.01750464 C47.80441544 605.26881002 47.80467662 604.52011539 47.80494571 603.74873304 C47.80533612 602.62338246 47.80533612 602.62338246 47.80573442 601.47529752 C47.80882056 593.14991809 47.81532644 584.82454182 47.8219471 576.49916458 C47.84158532 551.34695021 47.85799656 526.19473924 47.86082363 501.04251671 C47.86091769 500.23880224 47.86101175 499.43508778 47.86110866 498.60701833 C47.86148713 495.35007789 47.86185113 492.09313746 47.86221164 488.83619702 C47.86248336 486.38493864 47.86276004 483.93368026 47.86303711 481.48242188 C47.86316914 480.26744131 47.86316914 480.26744131 47.86330384 479.02791569 C47.86621101 453.56252167 47.88832745 428.09720347 47.92456055 402.63183594 C47.96528541 374.00898409 47.98898216 345.3861839 47.98928314 316.76330149 C47.98937997 313.71160228 47.98954668 310.65990309 47.98976326 307.60820389 C47.98980737 306.85681911 47.98985149 306.10543433 47.98989694 305.33128032 C47.99101655 293.24233122 48.008421 281.15345817 48.03158258 269.06453356 C48.05442267 256.91826571 48.05865174 244.77210063 48.04403328 232.62581919 C48.03659951 226.04635285 48.0377808 219.46709746 48.06044388 212.88765526 C48.08099097 206.86494365 48.07847288 200.84269894 48.05756903 194.81999262 C48.05406615 192.64118029 48.05901772 190.46233455 48.07327347 188.28356604 C48.15154368 175.49737868 47.96030415 166.1946835 39.5 156 C29.06902105 146.36789252 15.56896227 143.54475252 1.875 143.0625 C0.50504883 143.00449219 0.50504883 143.00449219 -0.89257812 142.9453125 C-3.11569924 142.85219748 -5.33883613 142.76637834 -7.5625 142.6875 C-8.0059375 141.49898437 -8.449375 140.31046875 -8.90625 139.0859375 C-10.25752591 135.48094906 -11.65447686 131.89573836 -13.0625 128.3125 C-14.55738732 124.44625868 -15.9323545 120.61261567 -17.0625 116.625 C-18.40352856 111.96865083 -20.20896872 107.60179921 -22.109375 103.1484375 C-23.82565606 99.06073582 -25.45434794 94.94371987 -27.0625 90.8125 C-27.51338989 89.65488159 -27.51338989 89.65488159 -27.97338867 88.47387695 C-29.78001662 83.8018005 -31.48413011 79.10766974 -33.125 74.375 C-35.13626497 68.65318349 -37.5206126 63.19415604 -40.1328125 57.72265625 C-43.34446683 50.90447207 -46.12901195 43.89961787 -48.95703125 36.91601562 C-50.29352899 33.64542314 -51.66235497 30.49346363 -53.28125 27.34765625 C-54.5625 24.6875 -54.5625 24.6875 -54.5625 21.6875 C-53.83772461 21.30005615 -53.11294922 20.9126123 -52.36621094 20.51342773 C-49.61427475 19.04092736 -46.86344141 17.5663906 -44.11328125 16.09057617 C-42.36279162 15.15196629 -40.61110055 14.21559814 -38.859375 13.27929688 C-37.725 12.67021484 -36.590625 12.06113281 -35.421875 11.43359375 C-34.2680835 10.8202417 -33.11429199 10.20688965 -31.92553711 9.57495117 C-28.57575268 7.75693941 -28.57575268 7.75693941 -25.60766602 5.68481445 C-17.14567883 0.02501004 -9.80612203 -0.30715495 0 0 Z " fill="#0E606E" transform="translate(2179.5625,778.3125)"/>
<path d="M0 0 C2.32853383 -0.00346367 4.65706601 -0.00823297 6.98559481 -0.01418173 C13.33458784 -0.02662391 19.68344437 -0.02055238 26.03243768 -0.01122308 C32.19212792 -0.0036269 38.35180537 -0.01314451 44.51149185 -0.02066517 C57.87565073 -0.03640663 71.23976641 -0.0351155 84.60392934 -0.02642844 C96.30018238 -0.01886347 107.99641965 -0.01692016 119.69267464 -0.02049637 C120.47036567 -0.02072552 121.24805671 -0.02095468 122.04931414 -0.02119078 C125.20671264 -0.02212489 128.36411114 -0.0230801 131.52150962 -0.02407007 C161.10443335 -0.03323476 190.68732966 -0.0249464 220.27024916 -0.00877938 C246.51559441 0.00545466 272.76089598 0.00418331 299.00624084 -0.01016235 C328.53566916 -0.02624938 358.06507328 -0.03258325 387.59450537 -0.02332556 C390.74625718 -0.0223635 393.898009 -0.02142498 397.04976082 -0.02049637 C397.82572572 -0.02025914 398.60169063 -0.0200219 399.40116962 -0.01977748 C411.0853744 -0.01637446 422.76956162 -0.02033834 434.45376396 -0.02793503 C447.74873162 -0.03653622 461.04364955 -0.03431867 474.33861106 -0.0180928 C481.11576866 -0.01009296 487.89283259 -0.00707692 494.66999054 -0.01704025 C500.88467755 -0.02603816 507.09919498 -0.0209709 513.3138668 -0.0051076 C515.55118869 -0.00178125 517.78852518 -0.0034049 520.02583753 -0.01073496 C571.67411759 -0.16684952 615.87586944 18.41847826 652.81312561 54.50595093 C663.74113092 65.71918965 672.6785882 78.81806201 680.43812561 92.38095093 C680.92925842 93.20595093 681.42039124 94.03095093 681.92640686 94.88095093 C685.77000279 101.555102 688.4499353 108.41816823 691.05531311 115.63485718 C692.40159543 119.28198923 693.89186778 122.79156517 695.57875061 126.29110718 C698.01969346 132.22703638 699.03024735 138.39369362 700.00062561 144.69345093 C700.67214767 150.19771332 700.67214767 150.19771332 702.43812561 155.38095093 C704.82504699 167.63702115 704.71551019 179.90994763 704.67863464 192.34358215 C704.67950808 194.54679748 704.68126159 196.7500126 704.68381298 198.95322663 C704.6882634 204.973599 704.68031465 210.99389956 704.67025685 217.0142628 C704.66248263 222.85007841 704.66418039 228.68588638 704.66562054 234.52170588 C704.66824033 246.44979244 704.66159609 258.37785673 704.64958572 270.30593681 C704.63773262 282.10821073 704.63004999 293.91047537 704.6278801 305.7127552 C704.62774262 306.44787425 704.62760514 307.18299329 704.62746349 307.94038867 C704.62678678 311.67401814 704.62618403 315.4076476 704.62560974 319.14127708 C704.62141416 345.55426386 704.60795412 371.96723854 704.58900452 398.38021851 C704.57062192 424.0325616 704.55646143 449.68490139 704.54798889 475.33724976 C704.54772584 476.12862055 704.54746279 476.91999135 704.54719176 477.73534308 C704.54455462 485.68295412 704.542003 493.63056518 704.53951404 501.57817627 C704.53444226 517.76691566 704.52879975 533.95565484 704.52281189 550.14439392 C704.52253731 550.88864919 704.52226273 551.63290446 704.52197983 552.39971292 C704.50359309 602.06013072 704.47186268 651.72054144 704.43812561 701.38095093 C705.10073647 701.36988941 705.76334732 701.3588279 706.44603729 701.34743118 C722.5881359 701.08211984 738.72954185 700.88370381 754.8733139 700.75920486 C762.68054626 700.69739267 770.48632118 700.61316957 778.2926178 700.47567749 C785.09879972 700.35585781 791.90392618 700.27860501 798.71113348 700.25188899 C802.31435708 700.23627565 805.91456217 700.1997524 809.51681519 700.11219025 C813.54466489 700.01508215 817.5673118 700.01308329 821.59632874 700.01864624 C822.78316254 699.97550293 823.96999634 699.93235962 825.1927948 699.88790894 C828.66732854 699.93978608 831.19601081 700.11501803 834.43812561 701.38095093 C837.90285344 705.01111786 842.43812561 710.10275934 842.43812561 715.38095093 C837.32300407 717.87811217 832.20733908 720.37415572 827.09114075 722.86911011 C825.2754996 723.75458765 823.45994835 724.64024954 821.64448547 725.52609253 C803.6113974 734.32383815 803.6113974 734.32383815 794.7559967 738.48226929 C766.26919085 751.87727444 738.35191544 766.61846663 710.68617249 781.62606812 C707.24082593 783.4875497 703.78632801 785.33139738 700.32875061 787.17001343 C686.54785193 794.50282008 672.88520522 802.01478375 659.32289124 809.74520874 C655.27877056 812.03833742 651.2166459 814.298685 647.15516663 816.56088257 C634.6902622 823.50576663 622.33685524 830.62721093 610.03919983 837.86386108 C609.18084534 838.36450073 608.32249084 838.86514038 607.43812561 839.38095093 C606.41953461 840.06418427 605.4009436 840.7474176 604.35148621 841.45135498 C600.00253351 843.92190921 596.12952754 843.89556189 591.22328186 843.77157593 C589.93967018 843.76308624 589.93967018 843.76308624 588.63012695 843.75442505 C585.9197035 843.73218599 583.2106437 843.68201517 580.50062561 843.63095093 C578.65363961 843.61086971 576.80663271 843.59262179 574.95960999 843.57626343 C570.45192991 843.5323624 565.94525828 843.46342362 561.43812561 843.38095093 C561.43803739 842.80031105 561.43794917 842.21967116 561.43785827 841.62143613 C561.42807654 778.40623791 561.41211235 715.1910425 561.36383057 651.9758606 C561.36311111 651.03158339 561.36239166 650.08730618 561.36165041 649.11441452 C561.34597771 628.59275255 561.32919538 608.07109164 561.31126999 587.54943152 C561.30248614 577.48562175 561.29394749 567.42181179 561.28553772 557.35800171 C561.28469667 556.35653137 561.28385562 555.35506103 561.28298909 554.32324311 C561.255843 521.86240347 561.24488857 489.4015829 561.24233037 456.9407328 C561.23961597 423.58313412 561.22056732 390.2255837 561.18096446 356.86800745 C561.17537852 352.15653996 561.16997932 347.44507227 561.16469383 342.73360443 C561.16312478 341.34267709 561.16312478 341.34267709 561.16152403 339.9236502 C561.14516563 324.99660499 561.14602739 310.06960804 561.15332844 295.14255771 C561.16030089 280.13600857 561.14913241 265.12955976 561.11946271 250.12303755 C561.10238595 241.20723406 561.09920237 232.29167814 561.11595141 223.37587269 C561.12577321 217.41750686 561.11744011 211.45934349 561.09446513 205.50101437 C561.08189602 202.10747196 561.07987382 198.71483159 561.09449635 195.32123664 C561.10904122 191.65927362 561.09279637 187.99866655 561.06898212 184.33678055 C561.08051285 183.29178892 561.09204357 182.24679729 561.10392371 181.17013925 C560.9575062 169.74333825 556.65221602 160.65334451 548.77015686 152.50985718 C540.72401971 145.1645561 532.79927679 143.07126017 522.12169838 143.12647533 C521.19953093 143.12326886 520.27736347 143.12006238 519.32725155 143.11675873 C516.23227989 143.10844689 513.13750114 143.11438724 510.04252625 143.12025452 C507.8031312 143.11723438 505.56373718 143.11334559 503.32434499 143.10866195 C497.16646367 143.0983555 491.0086404 143.10057052 484.85075426 143.10484254 C478.89300387 143.10705211 472.93526664 143.09990319 466.97752138 143.09308229 C453.28671696 143.07783896 439.59593103 143.07613756 425.90511991 143.07860532 C415.3332783 143.08043772 404.76144275 143.07867947 394.1896019 143.07438087 C392.67094107 143.07377848 391.15228025 143.07317728 389.63361942 143.07257727 C387.34516337 143.07167002 385.05670732 143.07076136 382.76825127 143.06984492 C361.49026388 143.06141485 340.21227876 143.05708007 318.93428993 143.06125164 C318.13208589 143.06140802 317.32988185 143.06156439 316.50336859 143.06172551 C312.43744977 143.06253129 308.37153097 143.06337707 304.30561216 143.06423881 C303.09434854 143.06449544 303.09434854 143.06449544 301.85861494 143.06475726 C300.22563541 143.06510391 298.59265589 143.06545244 296.95967637 143.06580284 C271.54883323 143.0711604 246.13802478 143.06322887 220.72718811 143.04476929 C192.17982901 143.0240555 163.63249141 143.01332537 135.08512437 143.01734477 C132.04150987 143.01774012 128.99789536 143.01810167 125.95428085 143.01844215 C125.20486245 143.01853289 124.45544405 143.01862362 123.683316 143.0187171 C112.36791009 143.01988329 101.05252588 143.01323314 89.7371254 143.00263023 C76.86901756 142.99058471 64.00095753 142.98901181 51.13284899 143.0014204 C44.565745 143.00746951 37.99871558 143.00837228 31.43161583 142.996418 C25.4211905 142.98560406 19.41093726 142.98860904 13.40052013 143.00267968 C11.22494443 143.005339 9.04935543 143.00292157 6.87379272 142.99494382 C3.91773208 142.9848555 0.96227166 142.99324494 -1.99376488 143.00622082 C-2.8392804 142.99891147 -3.68479592 142.99160213 -4.55593312 142.98407128 C-15.06706923 143.07977083 -22.75988851 146.79335713 -30.25328064 154.00985718 C-34.21800489 158.29255431 -36.53676439 162.94076907 -38.56187439 168.38095093 C-38.91507751 169.20723999 -39.26828064 170.03352905 -39.63218689 170.88485718 C-41.02708726 176.13038587 -41.03403505 181.3492593 -41.18687439 186.75595093 C-41.2448822 188.43237671 -41.2448822 188.43237671 -41.30406189 190.14266968 C-41.39794024 192.88861133 -41.48209333 195.63457459 -41.56187439 198.38095093 C-47.94868243 200.97876235 -54.36550726 203.43734243 -60.86265564 205.74423218 C-62.64368885 206.38180356 -64.42452375 207.01992915 -66.20518494 207.65853882 C-67.128909 207.98967682 -68.05263306 208.32081482 -69.00434875 208.6619873 C-100.4050962 219.94715784 -131.09392774 232.43248608 -161.36619568 246.45819092 C-165.90591375 248.54847612 -170.47239326 250.57709783 -175.04161072 252.60189819 C-176.27743771 253.1503175 -176.27743771 253.1503175 -177.5382309 253.70981598 C-179.54590056 254.60067246 -181.55378458 255.49104203 -183.56187439 256.38095093 C-183.58511288 244.70600654 -183.60284792 233.03106772 -183.61368656 221.35610485 C-183.6188903 215.93412136 -183.62594208 210.51215378 -183.63731384 205.09017944 C-183.64823226 199.85117246 -183.6541701 194.61218071 -183.65675163 189.37316322 C-183.65858981 187.38104322 -183.66217913 185.38892399 -183.66760445 183.39681053 C-183.73273668 158.47477337 -183.73273668 158.47477337 -181.32749939 148.29501343 C-181.08555847 147.26811401 -180.84361755 146.2412146 -180.59434509 145.18319702 C-180.33612976 144.13470581 -180.07791443 143.0862146 -179.81187439 142.00595093 C-179.54528015 140.9097644 -179.27868591 139.81357788 -179.00401306 138.68417358 C-177.07611916 130.96457226 -174.80137395 123.6611166 -171.56187439 116.38095093 C-171.02003919 115.11018944 -170.47834644 113.83936719 -169.93687439 112.56845093 C-169.48312439 111.51657593 -169.02937439 110.46470093 -168.56187439 109.38095093 C-167.53568448 106.72326094 -166.54681548 104.05436246 -165.56187439 101.38095093 C-164.90187439 101.38095093 -164.24187439 101.38095093 -163.56187439 101.38095093 C-163.41492126 100.84727905 -163.26796814 100.31360718 -163.11656189 99.76376343 C-158.70140514 85.09732318 -147.97075826 71.68064793 -137.63218689 60.60360718 C-135.76561483 58.59968359 -134.00571365 56.54342178 -132.24937439 54.44345093 C-98.74451248 16.36974422 -49.42549509 -0.16175511 0 0 Z " fill="#0E606E" transform="translate(965.5618743896484,77.61904907226563)"/>
<path d="M0 0 C-0.78310547 0.41137207 -1.56621094 0.82274414 -2.37304688 1.24658203 C-18.87904939 9.93559999 -35.16978851 18.86941217 -51.22558594 28.37255859 C-54.81776687 30.47969324 -58.43978874 32.53146789 -62.06542969 34.58032227 C-72.62154911 40.54738009 -82.95702596 46.82110082 -93.22851562 53.26416016 C-96.13237343 55.08290831 -99.04215694 56.89187499 -101.953125 58.69921875 C-120.94713439 70.50436974 -139.6367917 82.73101971 -158.25 95.125 C-159.38918884 95.88307449 -159.38918884 95.88307449 -160.5513916 96.65646362 C-171.09884734 103.6787406 -181.57844743 110.79228596 -192 118 C-193.02867188 118.7101123 -194.05734375 119.42022461 -195.1171875 120.15185547 C-207.11938092 128.44664058 -219.03820033 136.84341288 -230.83496094 145.42773438 C-233.03448533 147.02504347 -235.23900474 148.61520083 -237.4453125 150.203125 C-260.0521354 166.47492026 -282.33452153 183.1640364 -304.47070312 200.06884766 C-306.80764611 201.8531352 -309.1458229 203.63579106 -311.484375 205.41796875 C-325.23312135 215.90261287 -338.93382864 226.43702501 -352.31494141 237.38891602 C-356.30363607 240.64620082 -360.33852616 243.82004223 -364.4375 246.9375 C-370.2897663 251.39912876 -375.9628267 256.05473055 -381.62597656 260.75317383 C-386.09191281 264.45118199 -390.60635268 268.07104194 -395.1875 271.625 C-400.58195329 275.81734456 -405.79380465 280.18813027 -410.95947266 284.65844727 C-415.31658868 288.42787352 -419.75001413 292.09068695 -424.22265625 295.72265625 C-427.90838753 298.74485223 -431.53744822 301.83147207 -435.16870117 304.91870117 C-438.53870316 307.77859495 -441.94035256 310.59262982 -445.375 313.375 C-451.08158671 318.02143707 -456.6266132 322.84390026 -462.17578125 327.67578125 C-465.76768076 330.80292146 -469.38034917 333.90506262 -473 337 C-483.02142329 345.57841795 -493.03242181 354.16529159 -502.80859375 363.0234375 C-504.85538796 364.86956561 -506.92131557 366.68993284 -509 368.5 C-512.02754767 371.13689636 -515.01937279 373.81016569 -518 376.5 C-520.98062721 379.18983431 -523.97245233 381.86310364 -527 384.5 C-531.71702877 388.61082427 -536.35569709 392.8074226 -541 397 C-542.66640851 398.50028679 -544.33307353 400.00028872 -546 401.5 C-546.82757812 402.24507812 -547.65515625 402.99015625 -548.5078125 403.7578125 C-550.14739879 405.23292618 -551.78799655 406.70691652 -553.4296875 408.1796875 C-559.48392486 413.6149613 -565.4898955 419.10132485 -571.48095703 424.60595703 C-572.95289916 425.95677503 -574.42757736 427.30460973 -575.90234375 428.65234375 C-583.32952624 435.4414864 -590.69291949 442.29683644 -598.04150391 449.17089844 C-600.0390102 451.03643286 -602.04044237 452.89766869 -604.04296875 454.7578125 C-604.70578857 455.37422607 -605.3686084 455.99063965 -606.05151367 456.62573242 C-607.30466055 457.79095019 -608.55866041 458.95525164 -609.8137207 460.1184082 C-612.74785086 462.84936531 -615.62494918 465.61635817 -618.4375 468.47265625 C-620.84190051 470.89883576 -623.31596326 473.17986416 -625.90625 475.40625 C-630.32772004 479.22285613 -634.40923229 483.33471922 -638.5 487.5 C-639.92450556 488.95045284 -641.35157464 490.39839265 -642.78125 491.84375 C-643.40064453 492.47474609 -644.02003906 493.10574219 -644.65820312 493.75585938 C-646.61067209 495.62690762 -648.59842051 497.38874588 -650.64804077 499.15002441 C-654.92703017 502.88618462 -658.96345663 506.8223189 -662.97314453 510.84375 C-663.72545349 511.59430664 -664.47776245 512.34486328 -665.25286865 513.11816406 C-667.71535485 515.5762832 -670.17420524 518.03800161 -672.6328125 520.5 C-674.35563816 522.22215121 -676.07861218 523.94415403 -677.80172729 525.66601562 C-681.40248595 529.26530433 -685.00144082 532.86638436 -688.59912109 536.46875 C-693.199939 541.07526905 -697.80523781 545.67727806 -702.41189766 550.2779541 C-705.96711404 553.82954955 -709.51993608 557.38353248 -713.07204819 560.93823242 C-714.76890641 562.63575544 -716.46650148 564.33254224 -718.16485977 566.02856445 C-720.54088926 568.40204176 -722.91366826 570.77872293 -725.28564453 573.15625 C-725.98086212 573.84944336 -726.67607971 574.54263672 -727.3923645 575.25683594 C-731.05939657 578.93970343 -734.5113893 582.68768029 -737.76339531 586.74450684 C-738.17147486 587.15881958 -738.57955441 587.57313232 -739 588 C-739.66 588 -740.32 588 -741 588 C-741.39638672 588.88643188 -741.39638672 588.88643188 -741.80078125 589.79077148 C-743.04346276 592.08006809 -744.32451943 593.5403626 -746.1875 595.34765625 C-746.80367187 595.95287109 -747.41984375 596.55808594 -748.0546875 597.18164062 C-748.69664062 597.80232422 -749.33859375 598.42300781 -750 599.0625 C-751.27308578 600.30107442 -752.54400932 601.54187616 -753.8125 602.78515625 C-754.37582031 603.33051025 -754.93914063 603.87586426 -755.51953125 604.43774414 C-757.2143664 606.1377109 -757.2143664 606.1377109 -759 609 C-759.66 609 -760.32 609 -761 609 C-761.25394531 609.58265625 -761.50789063 610.1653125 -761.76953125 610.765625 C-763.13320333 613.24188033 -764.64225203 614.80520626 -766.6875 616.75 C-770.07148779 620.04236358 -773.18912035 623.46180234 -776.26171875 627.04296875 C-778.59595705 629.67095389 -781.08764296 632.11588895 -783.6171875 634.5546875 C-785.10854485 635.97109777 -785.10854485 635.97109777 -786 638 C-786.66 638 -787.32 638 -788 638 C-788.38828979 638.87156738 -788.38828979 638.87156738 -788.78442383 639.76074219 C-790.09484176 642.17471152 -791.54846882 643.84997121 -793.44921875 645.828125 C-794.47499023 646.90513672 -794.47499023 646.90513672 -795.52148438 648.00390625 C-796.59366211 649.11572266 -796.59366211 649.11572266 -797.6875 650.25 C-802.37411507 655.14075863 -806.98645017 660.06134015 -811.42114258 665.18261719 C-813.57305368 667.65962758 -815.78421013 670.08012422 -818 672.5 C-822.05718987 676.95316185 -826.0631495 681.44032744 -830 686 C-830.47824219 686.55187988 -830.95648437 687.10375977 -831.44921875 687.67236328 C-833.09363486 689.57110646 -834.73468811 691.47271059 -836.375 693.375 C-837.1801001 694.30469604 -837.1801001 694.30469604 -838.00146484 695.25317383 C-840.7912103 698.42467607 -840.7912103 698.42467607 -843 702 C-843.66 702 -844.32 702 -845 702 C-845.27529541 702.59369385 -845.55059082 703.1873877 -845.83422852 703.79907227 C-846.94469629 705.89558892 -848.08691054 707.44507002 -849.65234375 709.21484375 C-850.17618652 709.81216309 -850.7000293 710.40948242 -851.23974609 711.02490234 C-851.80000488 711.65605957 -852.36026367 712.2872168 -852.9375 712.9375 C-854.11647398 714.28203622 -855.29484905 715.62709782 -856.47265625 716.97265625 C-857.06449707 717.64699707 -857.65633789 718.32133789 -858.26611328 719.01611328 C-864.42541757 726.06349524 -870.45086301 733.20423134 -876.13671875 740.640625 C-878.45404169 743.5749291 -880.88128753 746.41030021 -883.3125 749.25 C-888.78689198 755.65057885 -893.92824071 762.27799365 -899 769 C-903.38711608 764.89776159 -906.80872788 760.36523786 -910.3125 755.5 C-915.45748475 748.43319597 -920.68248747 741.43790362 -926 734.5 C-931.13050282 727.79838097 -936.19858519 721.05769553 -941.1875 714.25 C-947.1465811 706.12146062 -953.23125742 698.0976585 -959.37792969 690.11035156 C-962.15575828 686.49633134 -964.92061093 682.87239751 -967.6875 679.25 C-971.06670347 674.82807375 -974.45170886 670.41087437 -977.85229492 666.00537109 C-981.39311411 661.41809233 -984.89677935 656.80827777 -988.3581543 652.16088867 C-994.72130125 643.62036357 -1001.30199746 635.27954421 -1008 627 C-1012.2951918 621.67334637 -1016.53539999 616.314013 -1020.6875 610.875 C-1025.05064194 605.16490486 -1029.55918041 599.58287714 -1034.10766602 594.01977539 C-1037.66846698 589.6586181 -1041.16705346 585.25549772 -1044.625 580.8125 C-1049.07024522 575.11111243 -1053.68921039 569.57969989 -1058.3828125 564.08203125 C-1060.79496524 561.25316987 -1063.15419998 558.38424878 -1065.5 555.5 C-1073.20695327 546.04395095 -1081.15224037 536.79609287 -1089.15869141 527.59350586 C-1092.68745933 523.53243936 -1096.1679965 519.43469408 -1099.625 515.3125 C-1104.07060701 510.02337169 -1108.68140746 504.90915905 -1113.375 499.83984375 C-1118.01902298 494.8157296 -1122.57334278 489.71058055 -1127.13671875 484.61328125 C-1132.8108004 478.28724049 -1138.54720591 472.02112197 -1144.33251953 465.796875 C-1145.43986422 464.60360166 -1146.54502844 463.40830097 -1147.64794922 462.2109375 C-1157.02946899 452.03070248 -1166.72191568 442.17226636 -1176.5 432.375 C-1177.10827637 431.76413544 -1177.71655273 431.15327087 -1178.34326172 430.52389526 C-1184.21934937 424.62808188 -1190.07140458 418.77128001 -1196.41210938 413.36962891 C-1198.5555702 411.52079508 -1200.52976944 409.53085304 -1202.5 407.5 C-1205.85515828 404.10469453 -1209.30080481 400.90472264 -1212.921875 397.796875 C-1215.21130945 395.81728882 -1217.44867295 393.78661041 -1219.6875 391.75 C-1228.46955754 383.83944435 -1237.51786609 376.30028136 -1246.84985352 369.04858398 C-1250.53704018 366.17635776 -1254.12960363 363.22013591 -1257.6875 360.1875 C-1262.87171884 355.83247746 -1268.23827205 351.76758396 -1273.6875 347.75 C-1274.86348755 346.88217896 -1274.86348755 346.88217896 -1276.06323242 345.99682617 C-1281.27930626 342.18054771 -1286.59381735 338.54139943 -1292 335 C-1288.11727886 333.70575962 -1285.60411971 334.77586933 -1281.8515625 335.95703125 C-1281.13604218 336.17512451 -1280.42052185 336.39321777 -1279.68331909 336.61791992 C-1277.32740473 337.33967056 -1274.97608946 338.07519517 -1272.625 338.8125 C-1270.97983281 339.32320947 -1269.33465036 339.83386977 -1267.68945312 340.34448242 C-1230.26385852 352.01507294 -1193.77254379 365.98114944 -1158 382 C-1157.01084595 382.44155426 -1157.01084595 382.44155426 -1156.00170898 382.89202881 C-1113.95292665 401.66443603 -1072.26703173 421.7974077 -1031.64697266 443.49853516 C-1024.15655349 447.48843293 -1016.55312459 451.25108531 -1008.94433594 455.00927734 C-1003.4333331 457.74198429 -997.96587212 460.53523439 -992.53274536 463.41902161 C-980.51663296 469.79688826 -968.34678375 475.83973345 -956.125 481.8125 C-955.05737427 482.33447968 -953.98974854 482.85645935 -952.88977051 483.39425659 C-934.30823572 492.47375038 -934.30823572 492.47375038 -915.57269287 501.2293396 C-913.79898136 502.04011042 -912.03050635 502.86230648 -910.26220703 503.68481445 C-909.22177246 504.15105225 -908.18133789 504.61729004 -907.109375 505.09765625 C-906.23249023 505.49476807 -905.35560547 505.89187988 -904.45214844 506.30102539 C-901.54020505 507.13106262 -899.87354844 506.88433033 -897 506 C-894.38875616 504.38553827 -894.38875616 504.38553827 -891.75 502.25 C-891.23751709 501.85369385 -890.72503418 501.4573877 -890.19702148 501.04907227 C-889.06538462 500.17366137 -887.93651957 499.29465882 -886.81005859 498.41259766 C-884.27306126 496.43268579 -881.71286161 494.48374091 -879.15380859 492.5324707 C-876.99514437 490.88613013 -874.83905393 489.23647037 -872.68359375 487.5859375 C-871.92546387 487.00553711 -871.16733398 486.42513672 -870.38623047 485.82714844 C-868.75488017 484.57801547 -867.12370326 483.32865602 -865.49267578 482.07910156 C-853.86154607 473.17267779 -842.16057257 464.37494096 -830.34277344 455.71777344 C-826.38969893 452.81929155 -822.4453839 449.9089362 -818.5 447 C-816.91798922 445.83460763 -815.33595797 444.66924304 -813.75390625 443.50390625 C-810.57249389 441.15987983 -807.39299384 438.81329118 -804.21484375 436.46484375 C-794.26324207 429.11470233 -784.26629573 421.83169447 -774.22509766 414.60449219 C-772.00501377 413.00361537 -769.78901451 411.39724569 -767.57421875 409.7890625 C-757.29926283 402.33341979 -746.93378134 395.01620262 -736.51904297 387.75732422 C-733.22556014 385.4597385 -729.9371816 383.15491101 -726.64892578 380.84985352 C-723.30913224 378.50948043 -719.96689576 376.17260896 -716.62451172 373.8359375 C-714.83900031 372.58690998 -713.05419587 371.33687136 -711.27001953 370.0859375 C-700.0680524 362.23341524 -688.80961846 354.48365126 -677.40527344 346.92773438 C-670.40706217 342.28595032 -663.43925468 337.60102379 -656.484375 332.89453125 C-655.07638641 331.94230431 -655.07638641 331.94230431 -653.63995361 330.97084045 C-649.82970478 328.39377236 -646.01946953 325.81670635 -642.2130127 323.23403931 C-631.48165333 315.9534137 -620.68837287 308.83596697 -609.6519165 302.02667236 C-605.78806559 299.62527439 -601.9906483 297.12088022 -598.1875 294.625 C-589.29446079 288.81830267 -580.33351259 283.12664852 -571.34130859 277.47509766 C-569.02202354 276.01387552 -566.70755024 274.54533616 -564.39453125 273.07421875 C-553.06611817 265.87523354 -541.63076591 258.86399526 -530.14990234 251.91113281 C-526.87359443 249.92330624 -523.60237359 247.92731177 -520.33203125 245.9296875 C-505.37479702 236.79994195 -490.32440957 227.84342888 -475.18319702 219.02224731 C-471.35724067 216.79322917 -467.53644348 214.55563716 -463.71875 212.3125 C-450.51013702 204.56054939 -437.20006104 197.00600412 -423.81396484 189.56494141 C-421.29718189 188.16527294 -418.78279245 186.76144745 -416.26953125 185.35546875 C-406.93224933 180.13898237 -397.54291681 175.0216777 -388.13085938 169.94140625 C-383.39232583 167.38325255 -378.65840324 164.81888709 -373.94921875 162.20703125 C-346.46766174 146.98976925 -318.26655347 133.08380561 -290.19075012 119.00498581 C-288.35144014 118.08203975 -286.51283825 117.15769822 -284.67443848 116.23294067 C-268.26082616 107.98359693 -251.73545533 100.06051552 -235.04147339 92.39834595 C-231.61367193 90.82238204 -228.19309692 89.23141544 -224.77424622 87.63615417 C-201.06608443 76.57704215 -177.10639204 66.15817953 -153 56 C-152.13594543 55.63521545 -151.27189087 55.27043091 -150.38165283 54.89459229 C-111.35693235 38.4206186 -71.86452123 23.31566309 -32 9 C-31.23792236 8.72593323 -30.47584473 8.45186646 -29.69067383 8.16949463 C-25.47281226 6.65417783 -21.25112576 5.15060149 -17.02203369 3.66690063 C-15.17545588 3.01773772 -13.33158062 2.36090324 -11.48779297 1.70385742 C-10.40127441 1.32720947 -9.31475586 0.95056152 -8.1953125 0.5625 C-7.25703613 0.23378906 -6.31875977 -0.09492187 -5.35205078 -0.43359375 C-3 -1 -3 -1 0 0 Z " fill="#0E606E" transform="translate(2077,754)"/>
<path d="M0 0 C1.73485251 0.00169321 3.46970932 0.00074095 5.20455933 -0.00265503 C9.90691122 -0.00437529 14.60834328 0.0308794 19.31048155 0.07278872 C24.22717331 0.11031777 29.14388657 0.11382279 34.06069946 0.12094116 C43.36801905 0.13958361 52.67491536 0.18881256 61.98204863 0.2490381 C72.57926606 0.31612188 83.17650379 0.34909695 93.77388072 0.37921071 C115.57035587 0.44191208 137.36645009 0.54743551 159.16259766 0.68115234 C158.37311053 2.1168449 157.58182741 3.55154993 156.78979492 4.98583984 C156.34934341 5.78489746 155.90889191 6.58395508 155.45509338 7.40722656 C153.82125088 10.28169377 152.00514181 12.97958684 150.10009766 15.68115234 C149.71926025 16.22255859 149.33842285 16.76396484 148.94604492 17.32177734 C148.12022111 18.4948732 147.29261501 19.66671608 146.46337891 20.83740234 C145.12350282 22.73656604 143.79827236 24.64532125 142.47509766 26.55615234 C134.94087634 37.39252935 127.00252028 47.89653173 118.95166016 58.35302734 C117.43104216 60.33182281 115.91868287 62.3162943 114.41259766 64.30615234 C101.75952625 80.95493052 88.21513085 96.98342827 74.16259766 112.46630859 C72.36656237 114.45527736 70.60306462 116.46678429 68.85009766 118.49365234 C58.25378552 130.60101094 46.99338385 142.0077785 35.60693359 153.3671875 C32.9003644 156.06836121 30.1992287 158.77488663 27.49853516 161.48193359 C25.75666846 163.22313999 24.01449185 164.96403644 22.27197266 166.70458984 C21.47595642 167.50263031 20.67994019 168.30067078 19.85980225 169.12289429 C15.66028682 173.30502605 11.38563124 177.33479431 6.88722229 181.19464111 C4.31101482 183.41515986 1.8388047 185.73800005 -0.64990234 188.05615234 C-5.25266072 192.3092145 -9.99486522 196.32349017 -14.88037109 200.25146484 C-17.66744457 202.54150408 -20.37959468 204.89475406 -23.08544922 207.27905273 C-30.31106224 213.63905837 -37.76956188 219.57636936 -45.45849609 225.36474609 C-48.41712303 227.59281519 -51.34337753 229.85522659 -54.24755859 232.15380859 C-63.33790668 239.34377367 -72.61083763 246.09643919 -82.23974609 252.54833984 C-85.62768558 254.82726428 -88.93351071 257.19749378 -92.22412109 259.61474609 C-97.60597993 263.55111654 -103.11612348 267.24549247 -108.71240234 270.86865234 C-109.70780029 271.51447266 -110.70319824 272.16029297 -111.72875977 272.82568359 C-139.00446757 290.46056004 -167.05550842 306.64012717 -195.83740234 321.68115234 C-196.82321289 322.19742188 -197.80902344 322.71369141 -198.82470703 323.24560547 C-255.33905978 352.65554289 -316.33873145 375.27497163 -377.83740234 391.68115234 C-379.0692627 392.01002441 -380.30112305 392.33889648 -381.5703125 392.67773438 C-407.48006668 399.5691725 -433.45991399 405.11830881 -459.88105774 409.64512634 C-463.78848417 410.31733409 -467.68702164 411.0215934 -471.57958984 411.77490234 C-520.58182596 421.13088275 -570.83856344 422.93557966 -620.58740234 422.99365234 C-621.50363121 422.99495022 -622.41986008 422.99624809 -623.36385345 422.9975853 C-654.0381926 423.03042917 -684.32461604 422.06519519 -714.83740234 418.68115234 C-716.70112257 418.4808233 -718.56489236 418.28095486 -720.42871094 418.08154297 C-741.1991633 415.83623942 -761.84230269 412.99285059 -782.40673828 409.29736328 C-785.81117785 408.68586275 -789.21849205 408.09291493 -792.62646484 407.50146484 C-814.63861264 403.61781324 -836.23941457 398.44061575 -857.83740234 392.68115234 C-857.83740234 343.84115234 -857.83740234 295.00115234 -857.83740234 244.68115234 C-850.50911021 246.51322538 -843.26345024 248.37592723 -836.02490234 250.49365234 C-818.28876182 255.58741731 -800.51912587 260.06494588 -782.46240234 263.86865234 C-781.26624802 264.12131866 -781.26624802 264.12131866 -780.04592896 264.37908936 C-755.01595999 269.64655518 -729.92356857 273.421725 -704.47167969 275.98876953 C-701.33888135 276.30600258 -698.20731143 276.63383811 -695.07568359 276.96240234 C-669.37018361 279.61672661 -643.78052045 279.92312868 -617.96240234 279.93115234 C-616.65954914 279.93203606 -616.65954914 279.93203606 -615.33037567 279.93293762 C-589.71150503 279.94519478 -564.31219 279.65342037 -538.83740234 276.68115234 C-537.44495803 276.52855908 -536.05237686 276.37721003 -534.65966797 276.22705078 C-442.62532035 266.23833638 -352.1406825 239.92809197 -267.45361328 197.48779297 C-264.33675178 195.92579275 -261.20474819 194.39771765 -258.06396484 192.88427734 C-245.90675794 186.99616142 -234.28405973 180.29183759 -222.68603516 173.37451172 C-220.10708744 171.84146566 -217.51809125 170.327859 -214.92333984 168.82177734 C-186.91876503 152.45535451 -160.4524636 133.53519366 -134.83740234 113.68115234 C-134.21881348 113.20436035 -133.60022461 112.72756836 -132.96289062 112.23632812 C-124.61155372 105.79644431 -116.53615657 99.09394351 -108.57421875 92.1796875 C-106.87420554 90.71290635 -105.161453 89.26282819 -103.44287109 87.81787109 C-89.37880095 75.96542437 -76.18295025 63.20198694 -63.26220703 50.12231445 C-60.04316485 46.86631616 -56.79594731 43.63898245 -53.54052734 40.41943359 C-52.38945453 39.2775379 -51.23841329 38.13561039 -50.08740234 36.99365234 C-49.49830078 36.41292969 -48.90919922 35.83220703 -48.30224609 35.23388672 C-45.1883347 32.24959919 -45.1883347 32.24959919 -42.83740234 28.68115234 C-42.17740234 28.68115234 -41.51740234 28.68115234 -40.83740234 28.68115234 C-40.57056641 28.08431641 -40.30373047 27.48748047 -40.02880859 26.87255859 C-38.81253302 24.6354091 -37.63382975 23.33695168 -35.77490234 21.61865234 C-31.86183486 17.83602045 -28.51914692 13.69165145 -25.14599609 9.42724609 C-24.38416016 8.52103516 -23.62232422 7.61482422 -22.83740234 6.68115234 C-22.14705902 5.64856293 -21.4567157 4.61597351 -20.74545288 3.55209351 C-15.50829509 -1.56840301 -6.81669026 -0.09277446 0 0 Z " fill="#FF9700" transform="translate(1844.83740234375,1729.31884765625)"/>
<path d="M0 0 C1.60976212 -0.00151062 1.60976212 -0.00151062 3.25204468 -0.00305176 C83.77974585 0.04697413 162.43680181 11.20874904 240.375 31.25 C240.375 80.09 240.375 128.93 240.375 179.25 C227.01201068 175.90925267 227.01201068 175.90925267 222.390625 174.26953125 C191.20568743 163.60978701 157.96872053 157.9925335 125.47363281 152.89794922 C121.87149379 152.3322387 118.2754319 151.73403838 114.6796875 151.12890625 C100.38588191 148.78941446 86.04454443 147.35842828 71.625 146.0625 C70.69148712 145.97764343 69.75797424 145.89278687 68.7961731 145.80535889 C46.0958933 143.76493483 23.41333978 142.98705223 0.625 142.9375 C-0.54921509 142.93488159 -1.72343018 142.93226318 -2.93322754 142.92956543 C-28.6308999 142.92352318 -54.06735826 144.68779841 -79.625 147.25 C-80.51908569 147.33912659 -81.41317139 147.42825317 -82.33435059 147.52008057 C-87.97642398 148.08654379 -93.61468156 148.68237265 -99.25 149.3125 C-100.26870178 149.42615906 -100.26870178 149.42615906 -101.3079834 149.54211426 C-110.17349958 150.54919834 -118.93203422 151.93980885 -127.70556641 153.53833008 C-130.92262767 154.12246697 -134.14067837 154.67849552 -137.3671875 155.20703125 C-156.8623585 158.43544794 -176.19636619 162.49820982 -195.18359375 167.99609375 C-198.28654864 168.88929503 -201.3991158 169.70371447 -204.53515625 170.47265625 C-245.39707613 180.53888101 -285.5462987 195.40673015 -323.625 213.25 C-325.20063721 213.98814941 -325.20063721 213.98814941 -326.80810547 214.74121094 C-333.08806665 217.69795786 -339.34045465 220.70791469 -345.57519531 223.75878906 C-347.60111659 224.74936921 -349.62910545 225.73573238 -351.65917969 226.71777344 C-366.15677021 233.734551 -380.12664652 241.40164916 -393.95214844 249.66162109 C-396.32464541 251.07151014 -398.70774456 252.45877007 -401.1015625 253.83203125 C-444.41270375 278.73517153 -485.23320668 309.3931119 -522.1484375 343.01953125 C-524.22607523 344.89071602 -526.32376982 346.73186581 -528.43359375 348.56640625 C-539.62212813 358.34270705 -550.23207758 368.76258039 -560.75 379.25 C-562.0642395 380.55735107 -562.0642395 380.55735107 -563.4050293 381.89111328 C-567.77085893 386.26743265 -571.98808362 390.70701675 -576.01611328 395.39599609 C-579.0840297 398.93131586 -582.32940502 402.30585679 -585.5546875 405.69726562 C-586.080625 406.25736328 -586.6065625 406.81746094 -587.1484375 407.39453125 C-587.67990922 407.94889201 -588.21138094 408.50325277 -588.75895786 409.07441235 C-590.72279783 411.25207444 -590.72279783 411.25207444 -592.32611752 413.98885822 C-595.40526424 418.63754591 -597.76243734 421.73912324 -603.26933479 423.24959373 C-607.80784561 423.7460873 -612.33855699 423.61258271 -616.89477539 423.4987793 C-618.63992109 423.49567282 -620.38508114 423.49742533 -622.13021851 423.50364685 C-626.84775041 423.50679239 -631.56218135 423.44230863 -636.2789948 423.36533332 C-641.21557421 423.29638336 -646.1522315 423.29009297 -651.08921814 423.27705383 C-660.42879185 423.24291772 -669.76694253 423.15272594 -679.10589069 423.04220945 C-689.74172927 422.91908858 -700.37763725 422.85873539 -711.0140115 422.80355966 C-732.88513407 422.68870273 -754.75497725 422.49532848 -776.625 422.25 C-775.66651915 420.47583674 -774.70600689 418.70277083 -773.74462891 416.93017578 C-773.20996002 415.94268341 -772.67529114 414.95519104 -772.12442017 413.93777466 C-770.58313992 411.17496402 -768.91886232 408.63967346 -767 406.125 C-763.4737411 401.41208418 -760.06444741 396.63261455 -756.6875 391.8125 C-751.79428394 384.85600838 -746.78992335 378.00835715 -741.625 371.25 C-740.83609375 370.21617187 -740.0471875 369.18234375 -739.234375 368.1171875 C-736.71036794 364.81844564 -734.16998819 361.53256962 -731.625 358.25 C-731.18397949 357.67991211 -730.74295898 357.10982422 -730.28857422 356.52246094 C-724.87167893 349.53027394 -719.35248453 342.65130138 -713.60302734 335.92919922 C-710.77696902 332.624591 -708.02737607 329.27235878 -705.3125 325.875 C-700.44543639 319.88544244 -695.15589616 314.31734747 -689.86328125 308.70703125 C-686.86415174 305.52275971 -683.98076016 302.25394164 -681.12890625 298.9375 C-679.00396047 296.55314526 -676.72530517 294.33869706 -674.44580078 292.10327148 C-672.77924195 290.40699258 -671.24679237 288.66488674 -669.71484375 286.84765625 C-664.87815966 281.28694063 -659.64616643 276.12165143 -654.42797852 270.92260742 C-652.691064 269.191053 -650.95956111 267.45421641 -649.22851562 265.71679688 C-644.04485439 260.53034957 -638.86862868 255.39840873 -633.25756836 250.66821289 C-631.45928979 249.10604746 -629.7924709 247.450375 -628.125 245.75 C-625.13627663 242.71405075 -622.00793521 239.90491341 -618.78125 237.125 C-616.42537042 235.07640906 -614.1199254 232.97796998 -611.8125 230.875 C-607.49239209 226.97636603 -603.04428619 223.27496142 -598.51953125 219.6171875 C-596.01158434 217.566154 -593.54420235 215.47589433 -591.08813477 213.36328125 C-583.55961232 206.90067259 -575.72526541 200.8862007 -567.81005859 194.90722656 C-565.66343887 193.27915341 -563.52727004 191.63839061 -561.39453125 189.9921875 C-530.04158639 165.80250697 -496.93191485 144.01888844 -462.625 124.25 C-461.67882812 123.70408203 -460.73265625 123.15816406 -459.7578125 122.59570312 C-391.31020696 83.27961871 -317.82387964 52.88520974 -241.625 32.25 C-240.65949219 31.98525879 -239.69398438 31.72051758 -238.69921875 31.44775391 C-208.00068888 23.05661011 -175.75237711 14.82715938 -144.01171875 11.671875 C-141.39962179 11.34649268 -138.96160079 10.91058569 -136.3984375 10.35546875 C-128.19863235 8.67294525 -119.86866679 7.79861683 -111.5625 6.8125 C-110.19547943 6.64917175 -110.19547943 6.64917175 -108.80084229 6.48254395 C-94.88915015 4.83450679 -80.97229892 3.50924255 -67 2.5 C-66.19537323 2.44119659 -65.39074646 2.38239319 -64.56173706 2.32180786 C-43.06496131 0.77467993 -21.55151472 0.01439774 0 0 Z " fill="#FF9700" transform="translate(1223.625,292.75)"/>
<path d="M0 0 C48.84 0 97.68 0 148 0 C147.28520281 3.57398596 146.50090735 6.79305389 145.40625 10.23828125 C145.09816406 11.22376953 144.79007813 12.20925781 144.47265625 13.22460938 C143.82757599 15.2725449 143.17917184 17.31943658 142.52734375 19.36523438 C140.78617408 24.95664745 139.60042023 30.18001753 139 36 C138.67 36.33 138.34 36.66 138 37 C137.6515437 38.55487643 137.34609995 40.11949695 137.0625 41.6875 C136.5167383 44.54971691 135.94054579 47.17464675 135 49.9375 C133.7666803 53.71454158 133.17187487 57.49963453 132.5 61.41015625 C132 64 132 64 131 66.9375 C129.76119288 70.73134679 129.19137673 74.50067807 128.56640625 78.4375 C127.90962996 82.56839639 127.21358743 86.6910953 126.5 90.8125 C126.38148682 91.51737549 126.26297363 92.22225098 126.14086914 92.94848633 C125.58652804 96.14093412 124.94857265 99.17460416 124.03125 102.2890625 C122.63149037 107.32607632 121.81821914 112.40307453 121 117.5625 C120.82557373 118.65208008 120.65114746 119.74166016 120.47143555 120.86425781 C118.93181948 130.81166035 117.95730184 140.77277877 117.23364258 150.80957031 C117 153 117 153 116.52246094 155.29321289 C111.08485145 183.46460373 112.71461438 213.85460595 112.75 242.4375 C112.75070055 243.68922815 112.75070055 243.68922815 112.75141525 244.96624374 C112.75427955 249.8241567 112.76460637 254.68195277 112.78673363 259.53981781 C112.79342627 261.03706101 112.79887567 262.53431034 112.80300331 264.03156281 C112.80984891 266.10110569 112.82331346 268.1704967 112.83886719 270.23999023 C112.84569519 271.4055394 112.85252319 272.57108856 112.85955811 273.7719574 C112.99689784 276.92869716 113.43354494 279.89513796 114 283 C114.11609644 284.79108562 114.19792628 286.58470839 114.24609375 288.37890625 C114.27896484 289.38373047 114.31183594 290.38855469 114.34570312 291.42382812 C114.40609873 293.48884385 114.4634741 295.55395049 114.51757812 297.61914062 C114.73563133 304.09079523 115.42612087 310.32053568 116.48071289 316.70776367 C117.35342401 322.24067832 117.91025477 327.80607427 118.5 333.375 C119.95117652 346.67866077 121.46772989 359.82110045 124.20703125 372.93359375 C125.33845063 378.53166008 126.16170468 384.18260179 126.99780273 389.83105469 C127.55904062 394.04219414 127.55904062 394.04219414 129 398 C129.34321164 399.84872823 129.65033607 401.70424083 129.9375 403.5625 C131.02124706 412.42308901 131.02124706 412.42308901 133.94921875 420.73828125 C135.49961041 424.07536962 136.081289 427.60289388 136.8125 431.1875 C138.75967351 440.28405167 141.26097924 449.11492577 144 458 C144.62918022 460.05981217 145.25806632 462.11971419 145.88671875 464.1796875 C147.90895918 470.79128888 149.95013063 477.39691728 152 484 C152.29616211 484.95455078 152.59232422 485.90910156 152.89746094 486.89257812 C153.69919165 489.47109241 154.50480401 492.04834881 155.3125 494.625 C155.54251709 495.36347168 155.77253418 496.10194336 156.00952148 496.86279297 C157.5147575 501.63829073 159.20932208 506.32420254 161 511 C161.5415271 512.43738525 161.5415271 512.43738525 162.09399414 513.90380859 C163.34728511 517.23024856 164.61064673 520.55275042 165.875 523.875 C166.29652344 524.99519531 166.71804688 526.11539063 167.15234375 527.26953125 C169.4455947 533.27967211 171.89435337 539.07259361 174.90332031 544.76123047 C176.10125511 547.20670288 177.00017529 549.67279342 177.875 552.25 C179.64978802 557.3507119 181.96788188 562.08525216 184.43310547 566.87573242 C186.1432439 570.21944277 187.67659469 573.54863074 189 577.0625 C190.98629169 582.26469252 193.62507539 587.05470204 196.31640625 591.921875 C201 600.48491879 201 600.48491879 201 604 C201.66 604 202.32 604 203 604 C203.55945313 605.093125 204.11890625 606.18625 204.6953125 607.3125 C215.10596322 627.46957446 226.63800941 646.98060107 239 666 C239.73017334 667.12414307 239.73017334 667.12414307 240.47509766 668.27099609 C247.45332251 678.96940803 254.76306881 689.39870089 262.31591797 699.69824219 C264.03310008 702.0452403 265.73789401 704.40087855 267.44140625 706.7578125 C275.24411141 717.50852194 283.42930484 727.85278991 292 738 C292.50692383 738.60070313 293.01384766 739.20140625 293.53613281 739.8203125 C295.40733175 742.03545444 297.2797522 744.2494871 299.15991211 746.45703125 C302.07820157 749.8871204 304.92457161 753.36822885 307.75 756.875 C310.76698474 760.58449548 313.89094359 764.01310149 317.328125 767.33203125 C319.10825885 769.10800591 320.73934856 770.96548949 322.375 772.875 C324.96634205 775.8846753 327.67254783 778.71088616 330.5 781.5 C333.28621141 784.2485599 335.95308392 787.02859791 338.5 790 C344.18913295 796.60885421 350.42100236 802.58276044 357.03515625 808.25390625 C359.10820324 810.09615675 361.05435802 812.02401662 363 814 C366.16650608 817.2096297 369.44671511 820.20844542 372.86328125 823.1484375 C376.09117496 825.94555198 379.24626928 828.82232406 382.41015625 831.69140625 C384.73910084 833.94700777 384.73910084 833.94700777 386.75622654 834.94600868 C389.13726792 836.41614584 390.43966314 837.65451708 392 840 C393.06050328 845.60008289 392.88488069 851.15647692 392.79467773 856.83740234 C392.79270233 858.57225464 392.79381329 860.30711278 392.79777527 862.04196167 C392.79978229 866.74444998 392.75865238 871.44568635 392.70975757 876.14788389 C392.66597383 881.06455848 392.66188452 885.98126235 392.65357971 890.89810181 C392.63183001 900.20549477 392.57439646 909.51231161 392.50413328 918.81945097 C392.42586904 929.41664676 392.38739808 940.01387018 392.35226524 950.61128306 C392.27911335 972.40784349 392.15600273 994.20388544 392 1016 C385.71293038 1013.56697005 380.52770986 1009.81049734 375 1006 C374.28360352 1005.50951172 373.56720703 1005.01902344 372.82910156 1004.51367188 C360.36255975 995.96488637 348.25634045 987.00782715 336.29296875 977.77001953 C334.29270482 976.22594867 332.28852225 974.68728392 330.28125 973.15234375 C327.17911329 970.77901677 324.08823397 968.39140169 321 966 C320.42701172 965.55849609 319.85402344 965.11699219 319.26367188 964.66210938 C312.41965264 959.38328116 305.77481542 954.02161875 299.41015625 948.1640625 C296.92338581 945.93120866 294.35879004 943.83855098 291.75 941.75 C285.98828522 937.09159231 280.61595915 932.06877404 275.21875 927 C272.79855662 924.73071937 270.33773146 922.52765632 267.8125 920.375 C264.03648404 917.12455372 260.56226421 913.58999508 257.06567383 910.04638672 C254.46063978 907.4192417 251.81524967 904.89988496 249 902.5 C241.73237352 896.27700156 235.07715466 889.3693545 228.875 882.09375 C226.51653506 879.46013082 224.01534106 876.98195531 221.5 874.5 C217.79589786 870.84008321 214.24712231 867.11056204 210.8671875 863.1484375 C208.97197955 860.96775889 207.02017436 858.84583082 205.0546875 856.72851562 C200.27159731 851.57297169 195.70753727 846.30626529 191.296875 840.82421875 C189.2742705 838.33724077 187.20737159 835.89629296 185.11694336 833.46630859 C179.7632541 827.23388376 174.73342555 820.80128405 169.78198242 814.24560547 C166.4854995 809.89529248 163.09997798 805.65616433 159.5625 801.5 C156.30577882 797.64308181 153.3930038 793.7675834 150.67578125 789.51953125 C148.48015275 786.21841148 146.11439271 783.05644833 143.75 779.875 C139.58993556 774.25542455 135.61918046 768.54434452 131.77709961 762.70336914 C129.15322644 758.71643149 126.46995514 754.7785896 123.74072266 750.86303711 C119.36532787 744.58116689 115.25611748 738.25338658 111.47265625 731.58984375 C109.86833521 728.76845157 108.16985618 726.02329168 106.43603516 723.28051758 C100.70566374 714.18031366 95.19833703 705.00034765 89.98779297 695.59350586 C88.97765395 693.77220973 87.95971017 691.95541315 86.94140625 690.13867188 C86.30074219 688.98560547 85.66007812 687.83253906 85 686.64453125 C84.4225 685.60659424 83.845 684.56865723 83.25 683.49926758 C82 681 82 681 82 679 C81.34 679 80.68 679 80 679 C79.74307373 678.44538086 79.48614746 677.89076172 79.22143555 677.31933594 C78.04826069 674.79396021 76.86796117 672.27197752 75.6875 669.75 C75.28337891 668.87730469 74.87925781 668.00460937 74.46289062 667.10546875 C73.86831055 665.83896484 73.86831055 665.83896484 73.26171875 664.546875 C72.71970825 663.38430176 72.71970825 663.38430176 72.16674805 662.19824219 C70.9671708 659.93814728 69.55431862 658.02689374 68 656 C67.38737506 654.58313615 66.82769894 653.14262286 66.3125 651.6875 C64.24953635 646.29329156 61.59684453 641.31592176 58.81762695 636.26635742 C56.97507658 632.90411378 55.34583777 629.58890071 54 626 C51.66615487 620.21042628 49.30845241 614.48446361 46.4375 608.9375 C44.2402884 604.65259513 42.60713727 600.30376969 41.0234375 595.76171875 C40.01917722 593.05174922 38.86466258 590.48460817 37.625 587.875 C35.07343972 582.40962088 33.08555049 576.80412455 31.14306641 571.10107422 C30.90765137 570.41287598 30.67223633 569.72467773 30.4296875 569.015625 C30.22585449 568.41008789 30.02202148 567.80455078 29.81201172 567.18066406 C29.12324249 565.33096872 28.34806453 563.51381185 27.55517578 561.70629883 C25.9974228 558.10421572 24.8228035 554.44233591 23.6875 550.68359375 C21.89123677 544.81454116 20.02011874 538.97740555 18.0625 533.16015625 C17.81209961 532.41462494 17.56169922 531.66909363 17.30371094 530.90097046 C16.28158653 527.86123544 15.25699989 524.82234345 14.22949219 521.78442383 C10.56031797 510.92492693 7.15376335 500.02031754 4 489 C3.65702881 487.81494873 3.31405762 486.62989746 2.96069336 485.40893555 C2.04685321 482.16625446 1.19679948 478.91651195 0.37890625 475.6484375 C0.08306641 474.46636719 -0.21277344 473.28429688 -0.51757812 472.06640625 C-0.82115234 470.84824219 -1.12472656 469.63007812 -1.4375 468.375 C-1.88706055 466.58255859 -1.88706055 466.58255859 -2.34570312 464.75390625 C-3.8017438 458.92342666 -5.21519482 453.08942701 -6.53515625 447.2265625 C-7.36511332 443.56231718 -8.287389 440.01009373 -9.46875 436.4453125 C-12.0389962 428.14890581 -13.09853279 419.42746513 -14.5 410.875 C-15.09124501 407.30947664 -15.68613045 403.74456588 -16.28125 400.1796875 C-16.49710251 398.87825806 -16.49710251 398.87825806 -16.71731567 397.55053711 C-17.62371839 392.12045231 -18.60654533 386.7102654 -19.6484375 381.3046875 C-20.72964976 375.62796418 -21.58967359 370.0021348 -22.125 364.25 C-22.548432 359.11820667 -22.548432 359.11820667 -23.49780273 354.07275391 C-24.06636892 351.72607092 -24.27919149 349.47765654 -24.46484375 347.0703125 C-24.54162354 346.11785645 -24.61840332 345.16540039 -24.69750977 344.18408203 C-24.77670654 343.17458496 -24.85590332 342.16508789 -24.9375 341.125 C-25.45641039 334.7495341 -26.00506624 328.43803735 -27.0625 322.125 C-28.28917182 314.33371727 -28.43107432 306.48757089 -28.65844727 298.61572266 C-28.68994873 297.57593262 -28.7214502 296.53614258 -28.75390625 295.46484375 C-28.77783447 294.532771 -28.8017627 293.60069824 -28.82641602 292.64038086 C-28.92307368 290.06577732 -28.92307368 290.06577732 -29.49978638 287.87185669 C-30.16532363 284.050834 -30.16402747 280.27594494 -30.17700195 276.40991211 C-30.18685875 275.12494843 -30.18685875 275.12494843 -30.19691467 273.81402588 C-30.21665557 270.96846396 -30.22833927 268.12295604 -30.23828125 265.27734375 C-30.24439454 263.79445956 -30.24439454 263.79445956 -30.25063133 262.28161812 C-30.27153838 257.00488624 -30.28579571 251.72818038 -30.29516602 246.45141602 C-30.3038635 242.17847705 -30.32433092 237.90588082 -30.35668945 233.63305664 C-30.6059967 199.96921964 -28.83697283 166.89345788 -24.40010071 133.51524353 C-23.98892821 129.90272436 -23.77780115 126.31941389 -23.625 122.6875 C-23.20886049 115.07593009 -22.18090946 107.60086367 -21.0625 100.0625 C-20.89250488 98.91289795 -20.72250977 97.7632959 -20.54736328 96.57885742 C-19.70488654 91.0585868 -18.76470356 85.60285013 -17.49584961 80.16455078 C-16.9615594 77.83219383 -16.49192184 75.49250141 -16.03125 73.14453125 C-15.13571298 68.61524783 -14.15070526 64.10963103 -13.14794922 59.60302734 C-11.32104799 51.38266018 -9.6330562 43.21616663 -8.44921875 34.875 C-6.6073147 23.08681409 -3.02094622 11.47959562 0 0 Z " fill="#FF9700" transform="translate(326,985)"/>
<path d="M0 0 C1.14041936 2.33042218 2.0885471 4.57963463 3 7 C5.41083281 13.4587316 5.41083281 13.4587316 8.5625 19.5625 C10.2799966 22.47477684 11.18627047 25.39360232 12.15625 28.62109375 C12.98641187 31.11862791 12.98641187 31.11862791 14.4140625 33.8125 C16.15667867 37.31490096 17.53664201 40.89351459 18.875 44.5625 C19.39926129 45.98064566 19.92400803 47.39861194 20.44921875 48.81640625 C20.83859619 49.87045654 20.83859619 49.87045654 21.23583984 50.94580078 C22.75626208 55.03296779 24.33835578 59.09646384 25.91015625 63.1640625 C26.83169952 65.56205682 27.73413361 67.96550645 28.625 70.375 C29.51960413 72.73350179 30.47552852 75.06993917 31.5 77.375 C32.672593 80.20876643 33.59115868 82.88004168 34.4375 85.8125 C35.42936404 89.24269648 36.56731579 92.51549424 37.9375 95.8125 C42.08895527 105.99231369 44.64350921 116.09452801 46 127 C46.66 127 47.32 127 48 127 C48.14099121 127.53890869 48.28198242 128.07781738 48.42724609 128.63305664 C49.07569489 131.10974866 49.7253395 133.58612556 50.375 136.0625 C50.59671875 136.91005859 50.8184375 137.75761719 51.046875 138.63085938 C52.00878553 142.29460683 52.9841839 145.94588296 54.046875 149.58203125 C55.1583404 153.56781904 56.01957391 157.57824344 56.875 161.625 C58.0087504 166.90056224 59.25427053 172.01152471 61 177.125 C63.28725193 184.20118564 64.34095686 191.42671177 65.49121094 198.75415039 C66.66395696 206.18483176 68.07813135 213.52066437 69.78125 220.84814453 C70.79223068 225.34762005 71.16976157 229.386123 71 234 C71.66 234 72.32 234 73 234 C73.15819214 235.34239746 73.15819214 235.34239746 73.31958008 236.71191406 C75.68091663 257.10950585 75.68091663 257.10950585 78.5625 277.4375 C84.7870643 317.96886011 85.18226123 358.46009501 85.1875 399.375 C85.18802242 400.31029541 85.18854485 401.24559082 85.1890831 402.20922852 C85.19185854 407.65257447 85.18801389 413.09584358 85.1739502 418.53917313 C85.16999236 420.22432807 85.16749789 421.90948714 85.16653442 423.59464645 C85.16440202 425.9256116 85.15578343 428.25646192 85.14526367 430.58740234 C85.14145187 431.90332367 85.13764008 433.219245 85.13371277 434.57504272 C85.0183188 437.53077688 84.65665041 440.12855753 84 443 C83.89191592 444.67898412 83.82358834 446.36086358 83.7890625 448.04296875 C83.76271729 449.02120605 83.73637207 449.99944336 83.70922852 451.00732422 C83.68143311 452.05678223 83.6536377 453.10624023 83.625 454.1875 C83.21686324 466.58067736 81.90288757 478.76155548 80.35546875 491.05664062 C79.94156069 494.48389033 79.60417333 497.91449565 79.27905273 501.35107422 C78.41413395 510.43320901 77.01432441 519.37960324 75.46118164 528.3684082 C74.51623059 533.84295676 73.66634832 539.29727771 73 544.8125 C72.19408072 551.20279798 70.9152865 557.42753983 69.53564453 563.71264648 C68.13510445 570.15082351 67.01100185 576.60985594 66.03930664 583.1262207 C65.41812513 587.1290312 64.53058229 590.17354427 63 594 C60.36 605.55 57.72 617.1 55 629 C6.16 629 -42.68 629 -93 629 C-91.70686948 621.2412169 -90.39257095 614.2135566 -88.0625 606.8125 C-87.81048828 605.98814453 -87.55847656 605.16378906 -87.29882812 604.31445312 C-86.32018998 601.13325343 -85.33985689 597.95905852 -84.22802734 594.8215332 C-81.99625771 588.51246466 -80.72488042 582.13339075 -79.5 575.5625 C-77.26330722 563.60701631 -77.26330722 563.60701631 -75.53125 558.34375 C-73.14542863 550.74161394 -72.21029094 542.79257184 -71 534.9375 C-70.62656792 532.55127874 -70.25113215 530.16538225 -69.87489319 527.77960205 C-69.62421992 526.19004235 -69.37458195 524.60031905 -69.1259613 523.01043701 C-68.42167775 518.53796224 -67.66575981 514.07939367 -66.85264587 509.62547302 C-65.17289079 500.41970284 -63.87760922 491.19189896 -62.74731445 481.90332031 C-62.44347968 479.42379874 -62.12546806 476.94638193 -61.80664062 474.46875 C-58.52377678 448.24722059 -57.67668422 422.06286081 -57.80438232 395.67523193 C-57.81526468 392.84295585 -57.81480279 390.01072679 -57.81437874 387.17843342 C-57.81484391 373.90999081 -57.91416549 360.65014512 -58.44921875 347.390625 C-58.48771439 346.42818375 -58.52621002 345.46574249 -58.56587219 344.47413635 C-58.83424111 338.63751602 -59.49256166 332.98767071 -60.53515625 327.234375 C-61.12413292 323.13628521 -61.27735465 319.07125178 -61.4375 314.9375 C-61.74749446 307.23103763 -62.67285727 299.75869012 -63.91381836 292.15039062 C-64.86389109 286.24399847 -65.40692092 280.419909 -65.59375 274.43359375 C-66.06545207 270.44680417 -67.12828305 266.8054044 -68.22460938 262.95092773 C-69.49208966 258.1272394 -70.23395718 253.23643076 -71 248.3125 C-71.34004669 246.20815543 -71.68119603 244.10398874 -72.0234375 242 C-72.18811523 240.98164062 -72.35279297 239.96328125 -72.52246094 238.9140625 C-73.18470943 234.87285699 -73.88661611 230.8404418 -74.625 226.8125 C-74.95371094 224.99685547 -74.95371094 224.99685547 -75.2890625 223.14453125 C-75.89393087 220.06885474 -75.89393087 220.06885474 -76.99609375 217.55859375 C-78.55358155 213.58912096 -79.08157806 209.42344049 -79.76757812 205.234375 C-80.55071949 200.73455723 -81.77220622 196.58955548 -83.27026367 192.27832031 C-84.22134609 189.30893218 -84.82332729 186.32006592 -85.43164062 183.26513672 C-87.79052657 171.53673758 -91.30574837 160.23548115 -95 148.875 C-95.25707733 148.07944702 -95.51415466 147.28389404 -95.77902222 146.4642334 C-98.49912008 138.07457044 -101.35422566 129.83573841 -104.84960938 121.73071289 C-106.375715 118.10815529 -107.68161595 114.41992524 -109.00390625 110.71923828 C-110.70605002 106.07255267 -112.6068146 101.5089289 -114.5 96.9375 C-115.63218526 94.19204735 -116.76326709 91.44616917 -117.890625 88.69873047 C-118.64558593 86.86216838 -119.40622678 85.02793317 -120.171875 83.19580078 C-120.53796875 82.30747559 -120.9040625 81.41915039 -121.28125 80.50390625 C-121.61189453 79.70927979 -121.94253906 78.91465332 -122.28320312 78.09594727 C-123 76 -123 76 -123 73 C-120.68701172 71.13745117 -120.68701172 71.13745117 -117.4296875 69.04296875 C-116.84601913 68.6636319 -116.26235077 68.28429504 -115.66099548 67.89346313 C-113.73876067 66.64784953 -111.80718041 65.41761863 -109.875 64.1875 C-108.53681447 63.32529895 -107.19917167 62.46225499 -105.86206055 61.59838867 C-102.52383945 59.44531962 -99.17778803 57.30479331 -95.82891846 55.16833496 C-93.24478153 53.51755742 -90.66752148 51.85615252 -88.08984375 50.1953125 C-67.90412872 37.22903704 -47.44908234 24.67224105 -26.72167969 12.59082031 C-23.83169702 10.901627 -20.95129315 9.19668144 -18.0703125 7.4921875 C-16.15150544 6.368999 -14.23224945 5.24657701 -12.3125 4.125 C-11.42071045 3.59422852 -10.5289209 3.06345703 -9.61010742 2.51660156 C-8.78615479 2.03932617 -7.96220215 1.56205078 -7.11328125 1.0703125 C-6.38923096 0.64508301 -5.66518066 0.21985352 -4.91918945 -0.21826172 C-3 -1 -3 -1 0 0 Z " fill="#FF9701" transform="translate(2070,832)"/>
<path d="M0 0 C1.76882472 1.12458715 3.5375168 2.24938294 5.30615234 3.37426758 C6.78358414 4.31379021 6.78358414 4.31379021 8.29086304 5.27229309 C26.54407918 16.91297722 43.87591334 29.77188808 61 43 C61.68255859 43.52513184 62.36511719 44.05026367 63.06835938 44.59130859 C70.81521387 50.55799212 78.30590061 56.76545903 85.69921875 63.1640625 C88.59146616 65.66172294 91.53196609 68.09254643 94.5 70.5 C106.39349644 80.19163923 117.71361001 90.36401787 128.82666016 100.93994141 C130.96204233 102.9640208 133.10929013 104.97453791 135.26171875 106.98046875 C142.65834497 113.87933513 149.95966789 120.86057236 157.125 128 C157.81142578 128.6818335 158.49785156 129.36366699 159.20507812 130.06616211 C163.10328651 133.97632525 166.81695549 137.99136329 170.40380859 142.18945312 C172.0343446 144.0389568 173.73974769 145.77421163 175.5 147.5 C178.51413582 150.46735323 181.29917333 153.57345292 184.05859375 156.77734375 C186.28804061 159.32976883 188.58001382 161.81887514 190.875 164.3125 C195.31449953 169.18528402 199.51267942 174.20653855 203.64990234 179.33642578 C206.99625804 183.45976533 210.39244684 187.54273485 213.77636719 191.63525391 C228.42330181 209.38949734 242.3195716 227.6638878 255.35839844 246.63085938 C257.00236719 249.0034163 258.67282997 251.35506811 260.3515625 253.703125 C261.13406372 254.80853638 261.13406372 254.80853638 261.93237305 255.9362793 C262.91059586 257.31816778 263.89606572 258.69496458 264.88989258 260.06567383 C266.00632064 261.65741077 267.01469828 263.32392762 268 265 C267.67 265.99 267.34 266.98 267 268 C264.40042602 269.21186616 261.88239326 270.22780369 259.19140625 271.1953125 C258.37565125 271.49954132 257.55989624 271.80377014 256.71942139 272.11721802 C254.94168975 272.77948527 253.16212742 273.43685372 251.38101196 274.08996582 C246.55115567 275.86362029 241.73729256 277.6797763 236.921875 279.4921875 C235.92613968 279.86609619 234.93040436 280.24000488 233.90449524 280.62524414 C223.98360052 284.3605944 214.13651488 288.26769539 204.3125 292.25 C203.47065155 292.5903125 202.6288031 292.930625 201.76144409 293.28125 C191.13746338 297.58263885 180.57632835 302.01781291 170.05078125 306.5546875 C168.96982681 307.01955566 167.88887238 307.48442383 166.77516174 307.96337891 C161.48519727 310.23968967 156.20141328 312.52869478 150.92700195 314.84082031 C149.01659995 315.66769013 147.10604471 316.49420601 145.1953125 317.3203125 C144.32131302 317.70895477 143.44731354 318.09759705 142.54682922 318.49801636 C141.74005234 318.84430084 140.93327545 319.19058533 140.10205078 319.54736328 C139.40266388 319.85360626 138.70327698 320.15984924 137.98269653 320.47537231 C135.56906236 321.11402744 134.30810343 320.92219645 132 320 C130.3897692 318.04902748 129.01203971 316.16300562 127.625 314.0625 C126.74434399 312.78146965 125.86003233 311.50294703 124.97265625 310.2265625 C124.49715332 309.54239258 124.02165039 308.85822266 123.53173828 308.15332031 C116.07807087 297.67494183 107.88770941 287.69484794 99.51171875 277.9453125 C97.12468504 275.14620921 94.80639849 272.30314909 92.5 269.4375 C88.3783014 264.37032215 84.01087398 259.57433941 79.5703125 254.7890625 C77.41922571 252.4549045 75.32074342 250.09253383 73.25 247.6875 C70.57490617 244.59840355 67.74794662 241.72366324 64.83129883 238.86376953 C63.11159192 237.11357056 61.52093611 235.3113954 59.93359375 233.44140625 C55.37924251 228.20528754 50.47807341 223.33211148 45.5625 218.4375 C44.65951172 217.53064453 43.75652344 216.62378906 42.82617188 215.68945312 C38.28910481 211.15895676 33.70055273 206.76402505 28.83422852 202.58911133 C25.8705361 200.02147204 23.03921449 197.31549119 20.1875 194.625 C14.99226503 189.75569915 9.67851763 185.14751627 4.109375 180.70703125 C2 179 2 179 0 177 C-0.24609566 173.98962975 -0.24609566 173.98962975 -0.24050903 170.03988647 C-0.24221788 169.31538886 -0.24392673 168.59089124 -0.24568737 167.84443915 C-0.24899489 165.40449452 -0.23795802 162.96482185 -0.22705078 160.52490234 C-0.22648694 158.78078722 -0.2268027 157.03667161 -0.22793579 155.29255676 C-0.22851136 150.5469175 -0.21672412 145.80137863 -0.20278788 141.05576277 C-0.19031443 136.10030083 -0.1891127 131.14483678 -0.18673706 126.18936157 C-0.18051231 116.80063296 -0.16408806 107.41195074 -0.14403808 98.02324259 C-0.12170999 87.3365862 -0.11069344 76.64992763 -0.10064721 65.96325374 C-0.07972268 43.97547657 -0.04452742 21.9877412 0 0 Z " fill="#FF9700" transform="translate(1733,444)"/>
<path d="M0 0 C17.04037333 12.98525198 30.55729053 27.8024455 38.00390625 48.2890625 C38.34035156 49.0521875 38.67679688 49.8153125 39.0234375 50.6015625 C44.18540611 62.35615768 45.26996915 73.91351707 45.31640625 86.6015625 C45.32188477 87.69855469 45.32736328 88.79554687 45.33300781 89.92578125 C45.26110583 98.1176481 44.80119674 105.91929014 41.00390625 113.2890625 C40.5355984 114.92813997 40.06759023 116.56730404 39.6015625 118.20703125 C39.40433594 118.89410156 39.20710938 119.58117188 39.00390625 120.2890625 C38.79636719 121.04832031 38.58882812 121.80757812 38.375 122.58984375 C30.86814071 146.48849239 10.44193241 166.62244436 -10.99609375 178.2890625 C-15.56515034 180.52701846 -20.25523725 182.44700011 -24.99609375 184.2890625 C-25.79660156 184.60746094 -26.59710937 184.92585938 -27.421875 185.25390625 C-51.43530205 194.07785293 -80.21484079 190.68439152 -102.99609375 180.2890625 C-123.37858379 170.77723381 -139.04438231 155.81833814 -149.99609375 136.2890625 C-150.71732422 135.10376953 -150.71732422 135.10376953 -151.453125 133.89453125 C-163.70973021 113.34342584 -166.51641948 84.92461803 -160.78320312 61.97387695 C-160.48220703 60.86101318 -160.18121094 59.74814941 -159.87109375 58.6015625 C-159.58814453 57.55250732 -159.30519531 56.50345215 -159.01367188 55.42260742 C-156.82417842 47.92620455 -153.68397199 41.16192649 -149.99609375 34.2890625 C-149.33609375 34.2890625 -148.67609375 34.2890625 -147.99609375 34.2890625 C-147.88007812 33.7115625 -147.7640625 33.1340625 -147.64453125 32.5390625 C-143.06152927 16.63659779 -123.69702802 3.12993476 -110.4296875 -4.82421875 C-75.90894835 -23.79295255 -32.51963239 -22.91859806 0 0 Z " fill="#0E606E" transform="translate(1225.99609375,940.7109375)"/>
<path d="M0 0 C0.33 0 0.66 0 1 0 C0.99777939 1.19967911 0.99555878 2.39935822 0.99327087 3.63539124 C0.97298532 14.94992514 0.95800175 26.26445536 0.94818783 37.57900333 C0.94297277 43.39569419 0.9359001 49.21237034 0.92456055 55.02905273 C0.91368276 60.64410484 0.90771278 66.25914281 0.90512276 71.87420464 C0.90327733 74.01476705 0.8996737 76.1553287 0.89426994 78.29588509 C0.88699464 81.29761542 0.8860118 84.29928763 0.88647461 87.30102539 C0.88287933 88.1828801 0.87928406 89.0647348 0.87557983 89.97331238 C0.88352944 94.7488442 1.22296739 99.27345342 2 104 C2.37891823 108.43586529 2.65412021 112.87775877 2.92993164 117.32104492 C3.06023198 119.401291 3.19878453 121.48087363 3.33789062 123.56054688 C3.9483612 133.05127882 4.107413 142.49116495 4 152 C3.67 152 3.34 152 3 152 C1.13647169 141.8862881 0.63743945 131.88322274 0.34204102 121.62133789 C0.31037842 120.57969482 0.27871582 119.53805176 0.24609375 118.46484375 C0.22216553 117.532771 0.1982373 116.60069824 0.17358398 115.64038086 C0.0792207 113.07016975 0.0792207 113.07016975 -0.50276184 110.90260315 C-1.18917702 106.89568853 -1.13905943 102.97599933 -1.12939453 98.91796875 C-1.13114685 98.01153122 -1.13289917 97.10509369 -1.13470459 96.17118835 C-1.13910236 93.17660603 -1.13619041 90.18208292 -1.1328125 87.1875 C-1.1334866 85.09586577 -1.13445752 83.00423162 -1.13571167 80.91259766 C-1.13718623 76.52456925 -1.13504357 72.1365612 -1.13037109 67.74853516 C-1.12470216 62.15501768 -1.12793627 56.5615485 -1.13394356 50.96803284 C-1.13757984 46.64401902 -1.13639609 42.32001638 -1.13381577 37.9960022 C-1.13315349 35.93576044 -1.13395019 33.87551763 -1.13629532 31.8152771 C-1.14575325 21.16153839 -1.09466716 10.60867455 0 0 Z " fill="#FFC066" transform="translate(297,1162)"/>
<path d="M0 0 C0.33 0 0.66 0 1 0 C2.03194843 6.7570752 2.50689847 13.50603564 2.92993164 20.32104492 C3.06023198 22.401291 3.19878453 24.48087363 3.33789062 26.56054688 C3.9483612 36.05127882 4.107413 45.49116495 4 55 C3.67 55 3.34 55 3 55 C-0.32461506 36.95670077 -0.24540815 18.29654088 0 0 Z " fill="#FFA317" transform="translate(297,1259)"/>
<path d="M0 0 C0.33 0 0.66 0 1 0 C1.34910893 10.8029818 0.26699248 21.28712612 -1 32 C-1.33 32 -1.66 32 -2 32 C-2.02887814 28.52085059 -2.04675687 25.04173169 -2.0625 21.5625 C-2.07087891 20.56927734 -2.07925781 19.57605469 -2.08789062 18.55273438 C-2.09111328 17.60849609 -2.09433594 16.66425781 -2.09765625 15.69140625 C-2.10289307 14.81685791 -2.10812988 13.94230957 -2.11352539 13.04125977 C-2 11 -2 11 -1 10 C-0.76712992 8.31816052 -0.58735834 6.6287584 -0.4375 4.9375 C-0.35371094 4.01839844 -0.26992187 3.09929687 -0.18359375 2.15234375 C-0.12300781 1.44207031 -0.06242187 0.73179688 0 0 Z " fill="#FFBE5D" transform="translate(2152,1287)"/>
<path d="M0 0 C0.33 0 0.66 0 1 0 C3.38297872 19.34042553 3.38297872 19.34042553 3 29 C2.67 29 2.34 29 2 29 C0.27490076 22.32373009 -0.25620222 16.31552429 -0.125 9.4375 C-0.11597656 8.52419922 -0.10695313 7.61089844 -0.09765625 6.66992188 C-0.07437253 4.44632681 -0.0416771 2.22331323 0 0 Z " fill="#FFC267" transform="translate(2150,1127)"/>
<path d="M0 0 C0.33 0 0.66 0 1 0 C1.06058594 0.71027344 1.12117188 1.42054687 1.18359375 2.15234375 C1.26738281 3.07144531 1.35117187 3.99054688 1.4375 4.9375 C1.51871094 5.85402344 1.59992188 6.77054688 1.68359375 7.71484375 C1.76044976 9.96159732 1.76044976 9.96159732 3 11 C3.07319621 13.69654854 3.09242537 16.36691458 3.0625 19.0625 C3.05798828 19.82111328 3.05347656 20.57972656 3.04882812 21.36132812 C3.0370068 23.24091871 3.01907078 25.12046899 3 27 C2.67 27 2.34 27 2 27 C0.46859805 17.87995448 -0.27675737 9.25599658 0 0 Z " fill="#FFBB57" transform="translate(298,1287)"/>
<path d="M0 0 C0.33 0 0.66 0 1 0 C1.02689216 1.47906892 1.04634621 2.95827483 1.0625 4.4375 C1.07410156 5.26121094 1.08570313 6.08492187 1.09765625 6.93359375 C1 9 1 9 0 10 C-0.23287008 11.68183948 -0.41264166 13.3712416 -0.5625 15.0625 C-0.68818359 16.44115234 -0.68818359 16.44115234 -0.81640625 17.84765625 C-0.87699219 18.55792969 -0.93757813 19.26820312 -1 20 C-1.66 20 -2.32 20 -3 20 C-2.69215623 17.04111327 -2.37894426 14.08296833 -2.0625 11.125 C-1.97548828 10.28324219 -1.88847656 9.44148438 -1.79882812 8.57421875 C-1.71181641 7.76855469 -1.62480469 6.96289062 -1.53515625 6.1328125 C-1.456604 5.38918457 -1.37805176 4.64555664 -1.29711914 3.87939453 C-1 2 -1 2 0 0 Z " fill="#FFBC58" transform="translate(308,1070)"/>
<path d="M0 0 C-1.78881736 1.00508801 -3.58114696 2.00392736 -5.375 3 C-6.37273438 3.556875 -7.37046875 4.11375 -8.3984375 4.6875 C-11 6 -11 6 -13 6 C-12.7734375 4.11328125 -12.7734375 4.11328125 -12 2 C-10.0390625 0.91796875 -10.0390625 0.91796875 -7.625 0.1875 C-6.83351563 -0.06644531 -6.04203125 -0.32039062 -5.2265625 -0.58203125 C-3 -1 -3 -1 0 0 Z " fill="#26707D" transform="translate(2077,754)"/>
</svg>
